<?xml version="1.0" encoding="utf-8"?>
<!-- Generator: Adobe Illustrator 17.0.0, SVG Export Plug-In . SVG Version: 6.00 Build 0)  -->
<!DOCTYPE svg PUBLIC "-//W3C//DTD SVG 1.1//EN" "http://www.w3.org/Graphics/SVG/1.1/DTD/svg11.dtd">
<svg version="1.1" id="Layer_1" xmlns="http://www.w3.org/2000/svg" xmlns:xlink="http://www.w3.org/1999/xlink" x="0px" y="0px"
	 width="158.333px" height="47px" viewBox="0 0 158.333 47" enable-background="new 0 0 158.333 47" xml:space="preserve">
<rect x="-20.333" y="-75.759" fill-rule="evenodd" clip-rule="evenodd" fill="#FFFFFF" width="198.425" height="198.425"/>
<g>
	<g>
		<circle fill-rule="evenodd" clip-rule="evenodd" fill="#FEBC11" cx="15.915" cy="22.897" r="11.881"/>
		<path fill-rule="evenodd" clip-rule="evenodd" d="M23.836,17.302c6.712-4.833,8.032-10.637,2.938-12.92
			c-3.431-1.538-8.918-1.096-14.187,0.833c3.853-0.939,7.556-0.958,10.068,0.168c4.723,2.117,3.499,7.499-2.724,11.981
			c-4.716,3.396-10.984,5.325-15.8,5.14C9.468,23.752,17.822,21.633,23.836,17.302z"/>
		<path fill-rule="evenodd" clip-rule="evenodd" fill="#A7A9AC" d="M36.947,35.445c10.58-6.966,12.66-15.331,4.632-18.622
			c-5.408-2.216-14.058-1.579-22.362,1.201c6.073-1.354,11.91-1.381,15.87,0.243c7.444,3.052,5.515,10.808-4.295,17.268
			c-7.434,4.895-17.315,7.675-24.905,7.408C14.299,44.741,27.468,41.687,36.947,35.445z"/>
	</g>
	<g>
		<path fill-rule="evenodd" clip-rule="evenodd" d="M55.604,18.947l-0.085,5.265h2.112c1.089,0,1.909-0.217,2.47-0.65
			c0.561-0.434,0.844-1.07,0.844-1.918c0-0.905-0.259-1.579-0.778-2.027c-0.523-0.448-1.296-0.669-2.329-0.669H55.604L55.604,18.947
			z M55.741,11.118l-0.085,4.832h2.239c0.863,0,1.56-0.222,2.093-0.665c0.528-0.439,0.792-1.018,0.792-1.739
			c0-0.806-0.245-1.414-0.73-1.819c-0.49-0.405-1.216-0.608-2.183-0.608H55.741L55.741,11.118z M50.739,8.04h8.989
			c2.074,0,3.601,0.391,4.582,1.179c0.98,0.787,1.471,2.008,1.471,3.653c0,1.273-0.33,2.281-0.995,3.036
			c-0.665,0.759-1.664,1.254-2.998,1.494c1.353,0.165,2.385,0.665,3.092,1.504c0.712,0.839,1.065,1.966,1.065,3.384
			c0,1.744-0.551,3.054-1.659,3.94c-1.103,0.882-2.739,1.325-4.902,1.325h-8.989L50.739,8.04L50.739,8.04z M82.298,20.993h-9.526
			c0.118,1.094,0.504,1.951,1.159,2.573c0.655,0.622,1.49,0.934,2.513,0.934c0.707,0,1.395-0.104,2.055-0.316
			c0.664-0.212,1.311-0.528,1.932-0.952l1.122,2.786c-1.282,0.674-2.404,1.155-3.37,1.447c-0.967,0.288-1.923,0.434-2.871,0.434
			c-2.201,0-3.941-0.665-5.214-1.994c-1.277-1.334-1.914-3.139-1.914-5.421c0-1.127,0.198-2.145,0.589-3.059
			c0.391-0.919,0.985-1.753,1.787-2.507c0.664-0.627,1.433-1.108,2.305-1.452c0.877-0.339,1.782-0.509,2.72-0.509
			c2.084,0,3.719,0.693,4.916,2.083c1.197,1.391,1.796,3.3,1.796,5.718V20.993L82.298,20.993z M78.47,18.358
			c-0.057-0.858-0.311-1.532-0.773-2.022c-0.462-0.495-1.056-0.74-1.791-0.74c-0.82,0-1.499,0.236-2.032,0.712
			c-0.533,0.471-0.882,1.146-1.047,2.022L78.47,18.358L78.47,18.358z M85.088,6.715h4.666l-0.358,20.839H84.73L85.088,6.715
			L85.088,6.715z M106.399,20.993h-9.526c0.118,1.094,0.504,1.951,1.16,2.573c0.655,0.622,1.49,0.934,2.512,0.934
			c0.707,0,1.395-0.104,2.055-0.316c0.665-0.212,1.311-0.528,1.933-0.952l1.122,2.786c-1.282,0.674-2.404,1.155-3.37,1.447
			c-0.966,0.288-1.923,0.434-2.871,0.434c-2.201,0-3.941-0.665-5.213-1.994c-1.278-1.334-1.914-3.139-1.914-5.421
			c0-1.127,0.198-2.145,0.589-3.059c0.391-0.919,0.985-1.753,1.786-2.507c0.665-0.627,1.433-1.108,2.305-1.452
			c0.877-0.339,1.782-0.509,2.72-0.509c2.084,0,3.719,0.693,4.916,2.083c1.197,1.391,1.796,3.3,1.796,5.718V20.993L106.399,20.993z
			 M102.571,18.358c-0.056-0.858-0.311-1.532-0.773-2.022c-0.462-0.495-1.056-0.74-1.791-0.74c-0.82,0-1.499,0.236-2.032,0.712
			c-0.533,0.471-0.881,1.146-1.046,2.022L102.571,18.358L102.571,18.358z M122.972,17.788l-0.179,9.767h-4.751l0.151-7.862v-0.151
			c0-0.858-0.141-1.499-0.429-1.928c-0.283-0.429-0.716-0.641-1.296-0.641c-0.386,0-0.806,0.104-1.263,0.311
			c-0.457,0.207-0.952,0.518-1.485,0.933l-0.165,9.338h-4.751l0.222-14.084h4.695l-0.028,1.749c0.995-0.698,1.923-1.221,2.79-1.565
			c0.867-0.344,1.678-0.518,2.447-0.518c1.296,0,2.296,0.387,2.993,1.16c0.702,0.773,1.051,1.881,1.051,3.328V17.788L122.972,17.788
			z M126.394,13.47h4.751l-0.137,7.858v0.151c0,0.858,0.141,1.499,0.429,1.928c0.283,0.429,0.716,0.641,1.296,0.641
			c0.358,0,0.764-0.104,1.216-0.311c0.448-0.208,0.957-0.528,1.518-0.962l0.151-9.305h4.779l-0.264,14.084h-4.695l0.056-1.753
			c-0.957,0.698-1.876,1.225-2.748,1.574c-0.877,0.349-1.702,0.523-2.475,0.523c-1.296,0-2.296-0.391-2.993-1.174
			c-0.702-0.782-1.051-1.89-1.051-3.328v-0.165L126.394,13.47L126.394,13.47z M153.724,14.036l-0.858,3.083
			c-0.698-0.321-1.362-0.566-1.98-0.731c-0.622-0.165-1.188-0.25-1.692-0.25c-0.415,0-0.745,0.099-0.985,0.302
			c-0.245,0.203-0.368,0.467-0.368,0.787c0,0.453,0.65,0.995,1.947,1.631c0.311,0.156,0.547,0.273,0.702,0.358
			c1.112,0.571,1.918,1.193,2.409,1.872c0.495,0.674,0.74,1.49,0.74,2.447c0,1.282-0.552,2.328-1.659,3.144
			c-1.103,0.815-2.56,1.221-4.374,1.221c-0.735,0-1.504-0.08-2.305-0.24c-0.801-0.16-1.617-0.396-2.446-0.698l0.801-3.347
			c0.707,0.349,1.395,0.618,2.055,0.801c0.665,0.184,1.268,0.278,1.81,0.278c0.443,0,0.787-0.099,1.027-0.292
			c0.245-0.193,0.368-0.462,0.368-0.811c0-0.396-0.589-0.914-1.768-1.551c-0.061-0.033-0.113-0.061-0.151-0.08
			c-1.574-0.839-2.593-1.551-3.05-2.14c-0.462-0.589-0.693-1.31-0.693-2.168c0-1.325,0.547-2.413,1.645-3.271
			c1.094-0.853,2.517-1.282,4.266-1.282c0.792,0,1.574,0.08,2.347,0.24C152.287,13.503,153.022,13.734,153.724,14.036z"/>
		<path fill-rule="evenodd" clip-rule="evenodd" d="M52.262,32.999v2.767h0.663c0.525,0,0.931-0.118,1.21-0.354
			c0.281-0.236,0.421-0.577,0.421-1.017c0-0.446-0.134-0.789-0.401-1.031c-0.266-0.242-0.645-0.364-1.137-0.364H52.262
			L52.262,32.999z M50.649,31.846h2.432c1.061,0,1.848,0.209,2.357,0.626c0.512,0.417,0.767,1.057,0.767,1.922
			c0,0.799-0.268,1.421-0.801,1.861c-0.535,0.443-1.291,0.663-2.267,0.663h-0.876v3.119h-1.614V31.846L50.649,31.846z
			 M60.013,37.177c-0.628,0-1.098,0.086-1.415,0.262c-0.317,0.175-0.476,0.437-0.476,0.783c0,0.26,0.09,0.472,0.271,0.636
			c0.179,0.163,0.417,0.246,0.708,0.246c0.423,0,0.769-0.149,1.043-0.447c0.274-0.299,0.409-0.685,0.409-1.157v-0.323H60.013
			L60.013,37.177z M62.03,36.624v3.414H60.67l-0.024-0.97c-0.25,0.37-0.545,0.649-0.888,0.84c-0.342,0.191-0.724,0.285-1.141,0.285
			c-0.6,0-1.084-0.175-1.454-0.527c-0.368-0.352-0.553-0.807-0.553-1.364c0-0.665,0.264-1.165,0.789-1.497
			c0.528-0.333,1.314-0.498,2.365-0.498h0.789V36.22c0-0.407-0.128-0.722-0.385-0.948c-0.258-0.224-0.622-0.336-1.09-0.336
			c-0.266,0-0.541,0.039-0.828,0.12c-0.285,0.081-0.581,0.203-0.884,0.364l-0.023-1.094c0.358-0.148,0.708-0.254,1.055-0.323
			c0.346-0.069,0.695-0.104,1.043-0.104c0.901,0,1.556,0.218,1.97,0.653C61.823,34.989,62.03,35.679,62.03,36.624L62.03,36.624z
			 M67.384,33.967l-0.057,1.383c-0.08-0.028-0.165-0.047-0.254-0.061c-0.089-0.014-0.181-0.02-0.277-0.02
			c-0.508,0-0.893,0.167-1.159,0.504c-0.266,0.336-0.397,0.827-0.397,1.468v2.796h-1.533v-5.984h1.377v1.192
			c0.193-0.445,0.435-0.779,0.73-1.002c0.293-0.222,0.64-0.334,1.039-0.334c0.071,0,0.148,0.004,0.232,0.014
			C67.17,33.934,67.268,33.948,67.384,33.967L67.384,33.967z M71.323,37.177c-0.628,0-1.098,0.086-1.415,0.262
			c-0.317,0.175-0.476,0.437-0.476,0.783c0,0.26,0.091,0.472,0.271,0.636c0.179,0.163,0.417,0.246,0.708,0.246
			c0.423,0,0.769-0.149,1.043-0.447c0.274-0.299,0.409-0.685,0.409-1.157v-0.323H71.323L71.323,37.177z M73.34,36.624v3.414h-1.359
			l-0.023-0.97c-0.25,0.37-0.545,0.649-0.888,0.84c-0.342,0.191-0.724,0.285-1.141,0.285c-0.6,0-1.084-0.175-1.454-0.527
			c-0.368-0.352-0.553-0.807-0.553-1.364c0-0.665,0.264-1.165,0.789-1.497c0.527-0.333,1.314-0.498,2.365-0.498h0.789V36.22
			c0-0.407-0.128-0.722-0.385-0.948c-0.258-0.224-0.622-0.336-1.09-0.336c-0.266,0-0.541,0.039-0.828,0.12
			c-0.285,0.081-0.58,0.203-0.884,0.364l-0.023-1.094c0.358-0.148,0.708-0.254,1.054-0.323c0.346-0.069,0.695-0.104,1.043-0.104
			c0.901,0,1.557,0.218,1.97,0.653C73.134,34.989,73.34,35.679,73.34,36.624L73.34,36.624z M78.649,31.207l-0.081,1.124
			c-0.112-0.043-0.215-0.075-0.305-0.093c-0.092-0.019-0.175-0.029-0.248-0.029c-0.301,0-0.521,0.096-0.665,0.291
			c-0.142,0.195-0.213,0.496-0.213,0.903v0.651h1.419v1.141h-1.419v4.842h-1.521v-4.842h-1.252v-1.141h1.252v-0.768
			c0-0.722,0.179-1.269,0.539-1.639c0.36-0.372,0.885-0.557,1.576-0.557c0.165,0,0.325,0.01,0.478,0.03
			C78.364,31.138,78.511,31.167,78.649,31.207L78.649,31.207z M79.491,34.054h1.545v3.178c0,0.553,0.096,0.96,0.289,1.222
			c0.191,0.262,0.49,0.391,0.894,0.391c0.456,0,0.807-0.181,1.047-0.545c0.24-0.364,0.36-0.889,0.36-1.576v-2.67h1.545v5.984h-1.407
			V38.89c-0.222,0.407-0.514,0.716-0.874,0.925c-0.358,0.211-0.775,0.315-1.248,0.315c-0.705,0-1.238-0.218-1.604-0.653
			c-0.364-0.437-0.547-1.076-0.547-1.917V34.054L79.491,34.054z M90.764,34.239l-0.116,1.135c-0.264-0.138-0.525-0.242-0.783-0.311
			c-0.258-0.069-0.514-0.104-0.768-0.104c-0.276,0-0.488,0.047-0.636,0.141c-0.147,0.095-0.222,0.228-0.222,0.405
			c0,0.266,0.313,0.537,0.938,0.813c0.069,0.031,0.122,0.055,0.155,0.069c0.643,0.285,1.084,0.565,1.326,0.84
			c0.242,0.274,0.364,0.614,0.364,1.017c0,0.569-0.226,1.019-0.681,1.352c-0.452,0.333-1.07,0.498-1.856,0.498
			c-0.331,0-0.651-0.026-0.966-0.079c-0.313-0.051-0.61-0.126-0.889-0.226l0.087-1.183c0.283,0.142,0.575,0.25,0.872,0.321
			c0.299,0.07,0.594,0.106,0.885,0.106c0.303,0,0.539-0.051,0.706-0.153c0.167-0.1,0.25-0.242,0.25-0.423
			c0-0.295-0.395-0.641-1.187-1.037c-0.016-0.008-0.026-0.014-0.029-0.018c-0.59-0.293-0.99-0.563-1.198-0.813
			c-0.207-0.25-0.311-0.553-0.311-0.911c0-0.525,0.222-0.954,0.665-1.285c0.444-0.33,1.027-0.496,1.749-0.496
			c0.193,0,0.405,0.024,0.64,0.069C89.997,34.014,90.329,34.103,90.764,34.239L90.764,34.239z M95.122,35.01
			c-0.464,0-0.842,0.185-1.133,0.557c-0.289,0.37-0.435,0.858-0.435,1.46c0,0.6,0.145,1.084,0.435,1.454
			c0.291,0.368,0.669,0.553,1.133,0.553c0.472,0,0.852-0.183,1.14-0.547c0.285-0.366,0.429-0.852,0.429-1.46
			c0-0.61-0.144-1.1-0.433-1.466C95.97,35.193,95.591,35.01,95.122,35.01L95.122,35.01z M95.122,33.898
			c0.992,0,1.771,0.279,2.338,0.836c0.567,0.557,0.85,1.326,0.85,2.306c0,0.976-0.285,1.745-0.854,2.308
			c-0.569,0.563-1.346,0.844-2.334,0.844s-1.763-0.281-2.328-0.842c-0.565-0.561-0.848-1.33-0.848-2.31
			c0-0.98,0.282-1.749,0.844-2.306C93.354,34.178,94.131,33.898,95.122,33.898L95.122,33.898z M103.491,34.239l-0.116,1.135
			c-0.264-0.138-0.525-0.242-0.783-0.311c-0.258-0.069-0.513-0.104-0.767-0.104c-0.275,0-0.488,0.047-0.635,0.141
			c-0.147,0.095-0.222,0.228-0.222,0.405c0,0.266,0.313,0.537,0.938,0.813c0.069,0.031,0.122,0.055,0.155,0.069
			c0.643,0.285,1.084,0.565,1.326,0.84c0.242,0.274,0.364,0.614,0.364,1.017c0,0.569-0.226,1.019-0.681,1.352
			c-0.452,0.333-1.07,0.498-1.856,0.498c-0.33,0-0.651-0.026-0.966-0.079c-0.313-0.051-0.61-0.126-0.889-0.226l0.087-1.183
			c0.283,0.142,0.575,0.25,0.872,0.321c0.299,0.07,0.594,0.106,0.886,0.106c0.303,0,0.539-0.051,0.706-0.153
			c0.167-0.1,0.25-0.242,0.25-0.423c0-0.295-0.395-0.641-1.186-1.037c-0.016-0.008-0.026-0.014-0.03-0.018
			c-0.59-0.293-0.99-0.563-1.198-0.813c-0.207-0.25-0.311-0.553-0.311-0.911c0-0.525,0.223-0.954,0.665-1.285
			c0.445-0.33,1.027-0.496,1.749-0.496c0.193,0,0.405,0.024,0.639,0.069C102.724,34.014,103.056,34.103,103.491,34.239
			L103.491,34.239z M113.866,36.982v0.484h-4.213c0.041,0.504,0.238,0.899,0.584,1.19c0.348,0.289,0.807,0.435,1.375,0.435
			c0.311,0,0.614-0.037,0.907-0.11c0.293-0.073,0.576-0.181,0.85-0.327v1.181c-0.291,0.12-0.606,0.209-0.945,0.269
			c-0.339,0.059-0.7,0.089-1.084,0.089c-1,0-1.781-0.287-2.343-0.862c-0.563-0.574-0.844-1.372-0.844-2.389
			c0-0.907,0.273-1.641,0.821-2.202c0.549-0.561,1.261-0.842,2.143-0.842c0.868,0,1.543,0.27,2.025,0.811
			C113.625,35.248,113.866,36.006,113.866,36.982L113.866,36.982z M112.477,36.509c-0.041-0.507-0.185-0.901-0.427-1.184
			c-0.242-0.281-0.557-0.423-0.944-0.423c-0.395,0-0.722,0.142-0.98,0.423c-0.258,0.283-0.415,0.677-0.472,1.184H112.477
			L112.477,36.509z M120.202,32.999v2.767h0.663c0.525,0,0.931-0.118,1.21-0.354c0.282-0.236,0.421-0.577,0.421-1.017
			c0-0.446-0.134-0.789-0.401-1.031c-0.266-0.242-0.646-0.364-1.137-0.364H120.202L120.202,32.999z M118.589,31.846h2.432
			c1.061,0,1.848,0.209,2.357,0.626c0.512,0.417,0.767,1.057,0.767,1.922c0,0.799-0.268,1.421-0.801,1.861
			c-0.535,0.443-1.291,0.663-2.267,0.663h-0.876v3.119h-1.613V31.846L118.589,31.846z M127.882,35.01
			c-0.464,0-0.842,0.185-1.133,0.557c-0.289,0.37-0.435,0.858-0.435,1.46c0,0.6,0.145,1.084,0.435,1.454
			c0.291,0.368,0.669,0.553,1.133,0.553c0.472,0,0.852-0.183,1.139-0.547c0.286-0.366,0.429-0.852,0.429-1.46
			c0-0.61-0.144-1.1-0.433-1.466C128.73,35.193,128.351,35.01,127.882,35.01L127.882,35.01z M127.882,33.898
			c0.992,0,1.771,0.279,2.338,0.836c0.567,0.557,0.85,1.326,0.85,2.306c0,0.976-0.285,1.745-0.854,2.308
			c-0.569,0.563-1.346,0.844-2.334,0.844c-0.988,0-1.763-0.281-2.328-0.842c-0.565-0.561-0.848-1.33-0.848-2.31
			c0-0.98,0.282-1.749,0.844-2.306C126.114,34.178,126.89,33.898,127.882,33.898L127.882,33.898z M136.131,33.967l-0.057,1.383
			c-0.081-0.028-0.165-0.047-0.254-0.061c-0.089-0.014-0.181-0.02-0.277-0.02c-0.508,0-0.893,0.167-1.159,0.504
			c-0.266,0.336-0.397,0.827-0.397,1.468v2.796h-1.533v-5.984h1.377v1.192c0.193-0.445,0.435-0.779,0.73-1.002
			c0.293-0.222,0.639-0.334,1.039-0.334c0.071,0,0.147,0.004,0.232,0.014C135.916,33.934,136.015,33.948,136.131,33.967
			L136.131,33.967z M141.565,34.203l-0.12,1.204c-0.273-0.108-0.506-0.185-0.699-0.232c-0.191-0.049-0.36-0.073-0.506-0.073
			c-0.577,0-1.041,0.177-1.393,0.531c-0.352,0.352-0.527,0.819-0.527,1.395c0,0.577,0.175,1.047,0.527,1.413
			c0.352,0.364,0.809,0.547,1.37,0.547c0.203,0,0.409-0.031,0.62-0.092c0.209-0.061,0.445-0.162,0.706-0.299l0.057,1.228
			c-0.427,0.146-0.76,0.244-1,0.293c-0.24,0.049-0.466,0.075-0.677,0.075c-0.976,0-1.755-0.291-2.337-0.874
			c-0.583-0.583-0.874-1.358-0.874-2.326c0-0.895,0.301-1.635,0.901-2.219c0.602-0.584,1.367-0.876,2.298-0.876
			c0.342,0,0.795,0.077,1.36,0.23C141.402,34.164,141.501,34.187,141.565,34.203L141.565,34.203z M145.857,37.177
			c-0.628,0-1.098,0.086-1.415,0.262c-0.317,0.175-0.476,0.437-0.476,0.783c0,0.26,0.091,0.472,0.271,0.636
			c0.179,0.163,0.417,0.246,0.708,0.246c0.423,0,0.77-0.149,1.043-0.447c0.273-0.299,0.409-0.685,0.409-1.157v-0.323H145.857
			L145.857,37.177z M147.874,36.624v3.414h-1.359l-0.023-0.97c-0.25,0.37-0.545,0.649-0.887,0.84
			c-0.343,0.191-0.724,0.285-1.141,0.285c-0.6,0-1.084-0.175-1.454-0.527c-0.368-0.352-0.553-0.807-0.553-1.364
			c0-0.665,0.264-1.165,0.789-1.497c0.527-0.333,1.314-0.498,2.365-0.498h0.789V36.22c0-0.407-0.128-0.722-0.386-0.948
			c-0.258-0.224-0.622-0.336-1.09-0.336c-0.266,0-0.541,0.039-0.828,0.12c-0.286,0.081-0.581,0.203-0.884,0.364l-0.023-1.094
			c0.358-0.148,0.708-0.254,1.055-0.323c0.346-0.069,0.695-0.104,1.043-0.104c0.901,0,1.557,0.218,1.97,0.653
			C147.667,34.989,147.874,35.679,147.874,36.624L147.874,36.624z M153.348,34.239l-0.116,1.135
			c-0.264-0.138-0.525-0.242-0.783-0.311c-0.258-0.069-0.513-0.104-0.767-0.104c-0.275,0-0.488,0.047-0.635,0.141
			c-0.148,0.095-0.222,0.228-0.222,0.405c0,0.266,0.313,0.537,0.939,0.813c0.069,0.031,0.122,0.055,0.155,0.069
			c0.644,0.285,1.084,0.565,1.326,0.84c0.242,0.274,0.364,0.614,0.364,1.017c0,0.569-0.226,1.019-0.681,1.352
			c-0.452,0.333-1.07,0.498-1.855,0.498c-0.33,0-0.651-0.026-0.966-0.079c-0.313-0.051-0.61-0.126-0.889-0.226l0.087-1.183
			c0.283,0.142,0.575,0.25,0.872,0.321c0.299,0.07,0.594,0.106,0.886,0.106c0.303,0,0.539-0.051,0.706-0.153
			c0.167-0.1,0.25-0.242,0.25-0.423c0-0.295-0.395-0.641-1.187-1.037c-0.016-0.008-0.025-0.014-0.029-0.018
			c-0.59-0.293-0.99-0.563-1.198-0.813c-0.207-0.25-0.311-0.553-0.311-0.911c0-0.525,0.223-0.954,0.665-1.285
			c0.444-0.33,1.027-0.496,1.749-0.496c0.193,0,0.405,0.024,0.64,0.069C152.581,34.014,152.913,34.103,153.348,34.239z"/>
	</g>
</g>
</svg>
