<?xml version="1.0" encoding="utf-8"?>
<!-- Generator: Adobe Illustrator 17.0.0, SVG Export Plug-In . SVG Version: 6.00 Build 0)  -->
<!DOCTYPE svg PUBLIC "-//W3C//DTD SVG 1.1//EN" "http://www.w3.org/Graphics/SVG/1.1/DTD/svg11.dtd">
<svg version="1.1" id="Layer_1" xmlns="http://www.w3.org/2000/svg" xmlns:xlink="http://www.w3.org/1999/xlink" x="0px" y="0px"
	 width="175.748px" height="52.67px" viewBox="0 0 175.748 52.67" enable-background="new 0 0 175.748 52.67" xml:space="preserve">
<g>
	<polygon fill-rule="evenodd" clip-rule="evenodd" fill="#FFFFFF" points="-8.504,-70.043 184.252,-70.043 184.252,122.713 
		-8.504,122.713 -8.504,-70.043 	"/>
	<polygon fill-rule="evenodd" clip-rule="evenodd" points="0,0 175.748,0 175.748,52.67 0,52.67 0,0 	"/>
	<polygon fill-rule="evenodd" clip-rule="evenodd" fill="#FFCB05" points="146.702,19.876 146.696,10.622 172.881,10.622 
		172.881,19.876 165.779,19.876 165.779,42.104 153.471,42.104 153.471,19.876 146.702,19.876 	"/>
	<polygon fill-rule="evenodd" clip-rule="evenodd" fill="#FFCB05" points="150.819,42.084 129.106,42.084 129.106,10.464 
		141.426,10.464 141.426,32.838 150.819,32.838 150.819,42.084 	"/>
	<path fill-rule="evenodd" clip-rule="evenodd" fill="#FFCB05" d="M107.064,42.084H94.701l10.489-31.62h12.86l9.943,31.62h-11.879
		l-1.121-4.171h-6.854L107.064,42.084L107.064,42.084z M113.25,30.229l-1.589-7.378l-1.735,7.378H113.25L113.25,30.229z"/>
	<polygon fill-rule="evenodd" clip-rule="evenodd" fill="#FFCB05" points="80.955,10.493 84.168,24.663 87.234,10.512 99.38,10.512 
		90.005,42.114 78.977,42.114 75.579,28.165 71.911,42.114 60.89,42.114 52.382,10.512 64.31,10.512 67.283,24.772 70.596,10.493 
		80.955,10.493 	"/>
	<polygon fill-rule="evenodd" clip-rule="evenodd" fill="#FFCB05" points="53.121,42.083 35.476,42.083 35.476,17.034 
		52.709,17.034 52.709,23.785 44.655,23.785 44.655,26.312 51.867,26.312 51.849,32.835 44.655,32.835 44.655,35.333 53.117,35.333 
		53.121,42.083 	"/>
	<path fill-rule="evenodd" clip-rule="evenodd" fill="#FFCB05" d="M16.868,42.101H3.29V10.382h13.84
		c5.257,0,9.275,1.219,12.046,3.657c2.948,2.587,4.422,6.439,4.422,11.544c0,5.758-1.52,10.004-4.553,12.734
		C26.246,40.835,22.183,42.101,16.868,42.101L16.868,42.101z M21.382,25.849c0-2.346-0.522-3.957-1.559-4.829
		c-1.036-0.873-2.806-1.309-5.3-1.309v12.402c2.595,0,4.389-0.478,5.377-1.435C20.889,29.722,21.382,28.106,21.382,25.849
		L21.382,25.849z"/>
	<polygon fill-rule="evenodd" clip-rule="evenodd" fill="#FFCB05" points="3.32,3.186 172.843,3.186 172.843,7.18 3.32,7.18 
		3.32,3.186 	"/>
	<polygon fill-rule="evenodd" clip-rule="evenodd" fill="#FFCB05" points="3.32,45.635 172.843,45.635 172.843,49.629 3.32,49.629 
		3.32,45.635 	"/>
	<path fill-rule="evenodd" clip-rule="evenodd" fill="#FFCB05" d="M169.488,37.853v1.038c0.031,0.003,0.063,0.005,0.094,0.007
		c0.031,0.001,0.06,0.002,0.086,0.002h0.076c0.279,0,0.496-0.061,0.65-0.18c0.154-0.12,0.232-0.289,0.232-0.508
		c0-0.19-0.066-0.346-0.2-0.462c-0.134-0.118-0.312-0.176-0.535-0.176c-0.136,0-0.237,0.022-0.303,0.069
		C169.521,37.69,169.488,37.76,169.488,37.853L169.488,37.853z M169.995,37.402c0.383,0,0.69,0.072,0.923,0.218
		c0.231,0.145,0.347,0.332,0.347,0.561c0,0.221-0.088,0.396-0.263,0.524c-0.176,0.13-0.468,0.23-0.875,0.301
		c0.258,0.078,0.452,0.181,0.583,0.307c0.13,0.128,0.222,0.301,0.275,0.518c0.013,0.053,0.026,0.133,0.04,0.238
		c0.032,0.242,0.109,0.362,0.231,0.362c0.074,0,0.134-0.037,0.178-0.113c0.044-0.075,0.065-0.179,0.065-0.309
		c0-0.003,0-0.006,0-0.013c0.006-0.028,0.009-0.055,0.009-0.079h0.179v0.1c0,0.21-0.056,0.374-0.167,0.493
		c-0.111,0.117-0.268,0.177-0.471,0.177c-0.125,0-0.235-0.022-0.329-0.064c-0.096-0.043-0.165-0.104-0.21-0.184
		c-0.053-0.099-0.082-0.243-0.088-0.437c-0.006-0.192-0.016-0.322-0.032-0.389c-0.045-0.185-0.133-0.324-0.264-0.416
		c-0.13-0.091-0.305-0.137-0.523-0.137h-0.115v0.978c0,0.137,0.033,0.231,0.102,0.287c0.067,0.056,0.191,0.092,0.373,0.107v0.176
		h-1.554v-0.176c0.184-0.01,0.311-0.044,0.379-0.099c0.069-0.057,0.104-0.154,0.104-0.296v-2.057c0-0.141-0.034-0.24-0.103-0.297
		c-0.067-0.058-0.195-0.093-0.381-0.106v-0.18H169.995L169.995,37.402z M172.375,39.064c0-0.685-0.241-1.272-0.723-1.762
		c-0.482-0.489-1.061-0.734-1.737-0.734c-0.678,0-1.261,0.245-1.748,0.734c-0.487,0.489-0.73,1.077-0.73,1.762
		c0,0.691,0.24,1.276,0.72,1.759c0.48,0.481,1.064,0.723,1.751,0.723c0.68,0,1.26-0.243,1.743-0.73
		C172.134,40.327,172.375,39.744,172.375,39.064L172.375,39.064z M169.915,36.217c0.373,0,0.738,0.075,1.097,0.227
		c0.357,0.151,0.665,0.359,0.924,0.622c0.259,0.269,0.457,0.578,0.597,0.928c0.14,0.349,0.209,0.713,0.209,1.091
		c0,0.317-0.058,0.631-0.173,0.941c-0.116,0.312-0.281,0.597-0.497,0.858c-0.275,0.33-0.6,0.581-0.976,0.754
		c-0.377,0.173-0.788,0.26-1.232,0.26c-0.309,0-0.613-0.056-0.913-0.166c-0.301-0.11-0.58-0.268-0.835-0.473
		c-0.336-0.275-0.593-0.601-0.773-0.982c-0.182-0.38-0.273-0.785-0.273-1.217c0-0.372,0.071-0.731,0.214-1.079
		c0.142-0.347,0.346-0.654,0.613-0.923c0.263-0.267,0.57-0.473,0.922-0.62C169.17,36.29,169.535,36.217,169.915,36.217
		L169.915,36.217z"/>
</g>
</svg>
