<?xml version="1.0" encoding="utf-8"?>
<!-- Generator: Adobe Illustrator 17.0.0, SVG Export Plug-In . SVG Version: 6.00 Build 0)  -->
<!DOCTYPE svg PUBLIC "-//W3C//DTD SVG 1.1//EN" "http://www.w3.org/Graphics/SVG/1.1/DTD/svg11.dtd">
<svg version="1.1" id="Layer_1" xmlns="http://www.w3.org/2000/svg" xmlns:xlink="http://www.w3.org/1999/xlink" x="0px" y="0px"
	 width="9237.641px" height="4128.7px" viewBox="0 0 9237.641 4128.7" enable-background="new 0 0 9237.641 4128.7"
	 xml:space="preserve">
<rect y="2" fill="#00247D" width="9235.641" height="4126.7"/>
<polygon fill="#FBC81A" points="1112.575,2555.282 511.647,2555.282 511.385,609.86 1112.575,609.86 "/>
<rect x="5779.119" y="609.86" fill="#FBC81A" width="601.365" height="1945.422"/>
<polygon fill="#FBC81A" points="7779.453,1636.558 7779.453,609.86 8264.522,609.86 8264.522,2555.282 7776.596,2555.282 
	7084.053,1424.588 7084.672,1424.588 7084.672,2555.282 6599.785,2555.282 6599.785,609.86 7164.024,609.86 7778.914,1636.558 "/>
<polygon fill="#FBC81A" points="5133.902,609.86 4864.374,1732.772 4858.748,1732.772 4629.887,609.86 4180.035,609.86 
	3952.893,1732.772 3946.78,1732.772 3677.273,609.86 3115.679,609.86 3634.865,2555.282 4156.717,2555.282 4405.682,1498.082 
	4654.669,2555.282 5176.624,2555.282 5695.423,609.86 "/>
<path fill="#FBC81A" d="M2836.102,1817.91l341.783,737.372h-637.58l-283.562-601.438H1939.02v601.438H1334.93V609.86
	c0,0,994.717-0.255,1054.767,0c63.671,0.233,137.551,4.809,150.375,5.531c339.809,20.126,608.302,303.018,608.302,647.942
	c0,234.8-124.931,440.416-311.915,554.089L2836.102,1817.91z M2256.051,1536.789c141.792,0,256.878-115.058,256.878-256.952
	c0-141.8-115.086-256.856-256.878-256.856l-317.03,1.027v512.963L2256.051,1536.789z"/>
<path fill="#FBC81A" d="M8533.146,2172.321c107.094,0,195.576,86.42,195.576,197.39c0,109.95-89.459,195.496-195.576,195.496
	c-106.809,0-196.392-85.546-196.392-195.496C8336.755,2259.769,8425.238,2172.321,8533.146,2172.321 M8533.146,2515.11
	c77.582,0,142.441-63.854,142.441-145.399c0-81.538-63.752-147.344-142.441-147.344c-78.528,0-143.337,64.91-143.337,147.344
	C8389.81,2452.335,8455.646,2515.11,8533.146,2515.11z M8457.599,2257.765h74.652c26.523,0,82.435,0,82.435,65.835
	c0,38.248-23.572,51.051-33.438,55.008l42.284,95.237h-56.989l-30.437-84.438h-25.452v84.438h-53.055V2257.765z M8510.653,2353.979
	h22.493c21.649,0,29.381-13.699,29.381-31.304c0-29.438-20.41-29.438-31.333-29.438h-20.541V2353.979z"/>
<polygon fill="#FBC81A" points="506.918,2703.377 506.918,2833.576 1884.348,2833.576 2425.328,3520.954 8281.464,3520.954 
	8281.464,3399.105 2484.198,3399.105 1939.02,2703.377 "/>
<path fill="#FBC81A" d="M8248.02,2812.487l-121.583,39.156c-16.455-46.516-51.193-69.774-104.214-69.774
	c-56.678,0-85.017,17.664-85.017,52.993c0,14.132,5.333,26.055,15.845,35.77c10.666,9.716,34.434,18.253,71.761,25.761
	c62.163,12.365,107.718,24.73,136.667,37.095c28.949,12.218,53.326,32.09,73.285,59.617c19.807,27.38,29.71,57.998,29.71,91.854
	c0,53.14-21.178,99.067-63.686,137.781c-42.508,38.714-105.433,58.145-188.773,58.145c-62.62,0-115.793-13.69-159.825-41.217
	c-43.879-27.527-72.828-68.302-86.845-122.472l132.553-28.852c14.931,54.759,56.221,82.139,124.021,82.139
	c32.757,0,57.135-6.035,73.133-18.253c15.998-12.218,24.072-26.791,24.072-43.719c0-17.37-7.313-30.618-21.939-40.186
	c-14.474-9.421-42.661-18.253-84.255-26.644c-77.703-15.456-133.009-36.506-166.071-63.444
	c-33.062-26.791-49.517-66.094-49.517-117.909c0-52.257,19.655-96.417,59.115-132.335c39.461-35.917,93.092-53.876,160.587-53.876
	C8136.797,2674.117,8213.738,2720.191,8248.02,2812.487 M7443.102,3041.533h128.896l-63.839-206.378L7443.102,3041.533z
	 M7606.888,2682.949l189.688,589.103H7643.15l-37.633-121.883h-196.543l-38.547,121.883H7245.34l195.172-589.103H7606.888z
	 M7323.497,2682.949v116.584h-150.836v472.519h-144.437v-472.519h-151.75v-116.584H7323.497z M6850.418,2682.949v589.103h-123.716
	l-235.547-397.887c0.305,10.01,0.609,16.634,0.914,19.872c1.219,10.01,1.828,18.548,1.828,25.466v352.549h-111.527v-589.103h154.492
	l205.685,347.397c-1.828-17.223-2.742-30.323-2.742-39.303v-308.094H6850.418z M6332.241,2795.117h-289.787v121h227.625v110.401
	h-227.625v128.949h289.787v116.584h-435.138v-589.103h435.138V2795.117z M5415.035,3272.052l-148.55-480.468v480.468H5146.73
	v-589.103h222.444l106.195,352.549l112.289-352.549h222.75v589.103h-143.523v-480.468l-152.968,480.468H5415.035z
	 M4763.239,3041.533h128.896l-63.839-206.378L4763.239,3041.533z M4927.025,2682.949l189.688,589.103h-153.426l-37.632-121.883
	H4729.11l-38.547,121.883h-125.086l195.172-589.103H4927.025z M4205.144,2788.935v150.146h87.759
	c28.643,0,49.517-1.914,62.467-5.888c13.103-3.827,24.53-12.512,34.738-25.76c10.208-13.395,15.236-28.704,15.236-46.074
	c0-16.339-5.028-31.06-15.236-44.014c-10.208-12.806-21.178-20.903-33.062-23.847c-12.036-3.091-34.434-4.563-67.19-4.563H4205.144z
	 M4205.144,3039.767v232.285h-143.522v-589.103h268c49.365,0,89.13,5.594,118.993,16.634c30.015,11.187,54.85,31.501,74.504,61.236
	s29.405,62.855,29.405,99.214c0,70.951-35.347,121.883-106.042,152.796l112.441,259.223h-157.387l-93.854-232.285H4205.144z
	 M3640.04,2788.935v150.146h87.759c28.644,0,49.517-1.914,62.468-5.888c13.103-3.827,24.53-12.512,34.738-25.76
	c10.208-13.395,15.236-28.704,15.236-46.074c0-16.339-5.028-31.06-15.236-44.014c-10.208-12.806-21.178-20.903-33.062-23.847
	c-12.036-3.091-34.433-4.563-67.19-4.563H3640.04z M3640.04,3039.767v232.285h-143.522v-589.103h268
	c49.365,0,89.13,5.594,118.992,16.634c30.015,11.187,54.849,31.501,74.503,61.236c19.655,29.735,29.406,62.855,29.406,99.214
	c0,70.951-35.347,121.883-106.042,152.796l112.441,259.223h-157.387l-93.854-232.285H3640.04z M3446.389,2795.117h-289.787v121
	h227.625v110.401h-227.625v128.949h289.787v116.584H3011.25v-589.103h435.138V2795.117z M2973.615,2799.533h-285.217v131.599
	h225.797v110.402h-225.797v230.518h-148.093v-589.103h433.31V2799.533z"/>
</svg>
