<?xml version="1.0" encoding="utf-8"?>
<!-- Generator: Adobe Illustrator 17.0.0, SVG Export Plug-In . SVG Version: 6.00 Build 0)  -->
<!DOCTYPE svg PUBLIC "-//W3C//DTD SVG 1.1//EN" "http://www.w3.org/Graphics/SVG/1.1/DTD/svg11.dtd">
<svg version="1.1" id="Layer_1" xmlns="http://www.w3.org/2000/svg" xmlns:xlink="http://www.w3.org/1999/xlink" x="0px" y="0px"
	 width="430px" height="105px" viewBox="0 0 430 105" enable-background="new 0 0 430 105" xml:space="preserve">
<path fill-rule="evenodd" clip-rule="evenodd" d="M292.984,79.485c2.336,0.059,4.883-0.93,6.02-2.113
	c1.246-1.297,1.937-3.61,2.101-6.012c0.34-4.996,0.04-11.09,0.04-16.207c0-5.125,0.296-11.203-0.04-16.211
	c-0.347-5.141-2.843-8.297-8.316-8.121l-57.211-0.016l-0.015,48.692L292.984,79.485z M224.492,18.684
	c-1.586,0.61-1.722,1.473-1.715,3.426l0.004,56.516c0,14.418-1.293,13.265,7.414,13.265h61.578
	c13.231,0.012,21.493-4.957,22.059-19.043c0.27-6.672,0.027-13.855,0.027-20.586c0-5.828,0.512-14.664-0.652-19.964
	c-3.172-14.411-16.23-13.856-27.215-13.856C277.102,18.442,225.953,18.126,224.492,18.684z"/>
<path fill-rule="evenodd" clip-rule="evenodd" d="M347.477,30.93c-4.547,0.641-6.489,2.766-6.942,7.426
	c-0.351,3.598-0.094,23.246-0.094,28.531c0,4.801-0.168,8.993,3.11,11.239c2.859,1.961,8.945,1.464,12.863,1.464h28.531
	c4.047,0,10.375,0.372,14.153-0.191c4.441-0.66,6.277-2.898,6.718-7.547c0.356-3.719,0.094-23.082,0.094-28.433
	c0-4.887,0.129-9-3.101-11.184c-2.938-1.988-8.743-1.492-12.809-1.492h-28.527C357.402,30.743,351.266,30.391,347.477,30.93z
	 M345.59,18.606c-6.688,0.66-10.934,2.793-13.973,6.516c-3.472,4.254-3.859,10.082-3.859,16.672c0,6.8,0,13.601,0,20.402
	c0,6.219-0.578,13.586,1.578,18.953c5.019,12.484,18.887,10.742,30.332,10.742c5.391,0,36.574,0.262,41.164-0.152
	c6.25-0.563,11.141-2.922,13.875-6.469c3.574-4.633,3.918-9.738,3.918-16.758c0-6.8,0-13.601,0-20.402
	c0-11.57,1.543-24.32-12.527-28.555c-5.387-1.621-13.516-1.113-19.528-1.113C381.754,18.442,349.574,18.212,345.59,18.606z"/>
<path fill-rule="evenodd" clip-rule="evenodd" fill="#CC0056" d="M193.742,52.485c-4.328,0.223-9.176,0.027-13.562,0.027h-40.629
	c-24.024,0-21.387,13.657-21.387,32.973c0,7.246,0.141,6.398,7.301,6.398c6.195,0,5.402-0.425,5.402-8.203
	c0-4.398-0.183-9.199,0.008-13.547c0.254-5.695,4.977-5.308,8.496-5.308H180c4.445,0,9.359-0.199,13.746,0.027
	c0.129,6.836,0.012,13.785,0.012,20.633c0,4.18-0.731,6.418,3.937,6.398c1.684-0.003,3.371-0.003,5.055,0
	c1.969,0.008,3.063-0.179,3.559-1.75c0.425-1.359,0.168-36.39,0.168-40.937c0-11.625,1.761-24.703-11.782-29.328
	c-5.613-1.918-12.808-1.422-19.211-1.422c-6.863,0-13.722,0-20.586,0c-13.46,0-27.418-1.801-33.523,7.699
	c-1.879,2.926-3.613,8.375-3.187,12.227c0.214,1.91,1.585,1.894,3.488,1.886c1.683-0.007,3.371-0.007,5.054-0.003
	c5.723,0.011,3.145-1.809,4.903-5.485c0.64-1.34,1.254-2.066,2.469-2.758c3.546-2.031,14.402-1.297,19.351-1.297
	c9.899,0,21.09-0.171,30.879,0c8.148,0.145,9.43,4.004,9.426,11.258C193.758,45.454,193.836,49.016,193.742,52.485z"/>
<path fill-rule="evenodd" clip-rule="evenodd" d="M17,18.669c-2.301,0.851-1.773,3.156-1.773,5.789c0,2.523-0.52,5.277,1.636,6.047
	c1.379,0.492,58.125,0.21,67.977,0.21c2.453,0,4.801-0.273,6.515,1.129c2.688,2.192,2.235,8.856,2.09,13.008
	c-0.074,2.227-0.371,4.629-1.566,5.969c-1.598,1.789-3.047,1.699-5.957,1.699H40.598c-13.953,0-25.375,0.145-25.371,20.145
	c0.003,5.054,0.019,10.113,0,15.168c-0.012,3.156,0.461,4.074,3.703,4.062c9.062-0.023,9.011,0.797,9.011-6.051
	c0-2.527,0-5.054,0-7.582c0-4.539-0.984-10.812,2.469-12.714c2.285-1.262,11.266-0.723,14.524-0.723h30.332
	c13.054,0,28.488,2.316,30.66-14.77c0.5-3.945,0.445-10.644,0.191-14.73c-0.281-4.481-1.492-8.695-3.851-11.317
	c-5.852-6.503-14.286-5.566-24.832-5.566C71.227,18.442,18.387,18.157,17,18.669z"/>
</svg>
