<?xml version="1.0" encoding="utf-8"?>
<!-- Generator: Adobe Illustrator 17.0.0, SVG Export Plug-In . SVG Version: 6.00 Build 0)  -->
<!DOCTYPE svg PUBLIC "-//W3C//DTD SVG 1.1//EN" "http://www.w3.org/Graphics/SVG/1.1/DTD/svg11.dtd">
<svg version="1.1" id="Layer_1" xmlns="http://www.w3.org/2000/svg" xmlns:xlink="http://www.w3.org/1999/xlink" x="0px" y="0px"
	 width="631.417px" height="446.457px" viewBox="0 0 631.417 446.457" enable-background="new 0 0 631.417 446.457"
	 xml:space="preserve">
<path fill-rule="evenodd" clip-rule="evenodd" fill="#EE7005" d="M390.926,270.367l-48.805-0.051
	c-8.93-0.07-13.965-6.804-13.965-15.511c0.074-8.711,7.141-14.5,14.215-14.5l48.555-0.067V270.367z M378.648,181.469
	c8.282,0,12.633,7.211,12.633,14.422c0.074,7.207-4.136,14.422-11.922,14.422h-36.988c-23.496,0-43.058,19.64-43.058,43.703
	c0,24.14,13.992,45.062,43.625,45.132l124.25,0.352l0.074-101.969c0-21.707,31.488-22.562,31.488-0.781v102.184h28.566V196.816
	c-0.285-21.062,30.563-21.136,29.637,0l0.07,102.118h30.567l0.492-117.329c0.645-16.777-11.137-31.417-31.273-31.058H467.98
	c-24.64-0.141-30.492,20.426-30.492,30.633v88.761h-16.855l-0.195-88.777c-0.141-26.996-18.801-30.117-32.727-30.117l-101.465-0.219
	V122.41h-30.07v28.418l-91.403,0.863c-26.273,0.286-46.265,18.348-46.265,44.27s14.351,45.703,44.344,45.203l37.203-0.574
	c20.211-0.352,20.211,29.637-0.145,29.566l-156.597-0.355v28.562l152.027,0.571c35.277,0.144,47.277-21.848,47.277-44.278
	c0-22.347-12.07-44.129-43.992-43.769l-35.492,0.426c-19.918,0.218-20.063-29.778-0.352-29.778l93.395-0.14v117.894h30.07V181.395
	L378.648,181.469z"/>
<path fill-rule="evenodd" clip-rule="evenodd" fill="#1B1918" d="M573.039,318.172l2.168-0.188c0.102,0.868,0.34,1.579,0.715,2.137
	c0.375,0.559,0.957,1.004,1.746,1.348c0.785,0.344,1.676,0.515,2.66,0.515c0.879,0,1.649-0.129,2.32-0.39
	c0.672-0.262,1.172-0.617,1.5-1.071c0.329-0.457,0.493-0.949,0.493-1.484c0-0.547-0.157-1.019-0.477-1.426
	c-0.316-0.41-0.836-0.75-1.559-1.023c-0.468-0.184-1.496-0.465-3.093-0.848c-1.59-0.387-2.711-0.746-3.348-1.086
	c-0.828-0.429-1.445-0.972-1.855-1.613c-0.403-0.645-0.606-1.363-0.606-2.164c0-0.871,0.246-1.691,0.742-2.453
	c0.496-0.762,1.227-1.34,2.18-1.735c0.957-0.394,2.016-0.589,3.184-0.589c1.289,0,2.418,0.203,3.406,0.621
	c0.98,0.41,1.738,1.023,2.265,1.824c0.528,0.805,0.813,1.719,0.852,2.738l-2.199,0.164c-0.121-1.094-0.524-1.926-1.207-2.484
	c-0.68-0.563-1.688-0.84-3.02-0.84c-1.39,0-2.402,0.254-3.039,0.762c-0.637,0.511-0.953,1.125-0.953,1.84
	c0,0.625,0.227,1.14,0.672,1.539c0.445,0.402,1.598,0.816,3.465,1.238s3.148,0.789,3.844,1.105c1.007,0.469,1.757,1.059,2.238,1.77
	c0.48,0.715,0.719,1.539,0.719,2.469c0,0.925-0.262,1.793-0.793,2.609c-0.528,0.816-1.289,1.453-2.278,1.906
	c-0.992,0.453-2.105,0.68-3.343,0.68c-1.571,0-2.887-0.227-3.946-0.688c-1.062-0.453-1.898-1.14-2.504-2.062
	C573.387,320.375,573.066,319.332,573.039,318.172z M556.633,315.332c0,2.094,0.558,3.738,1.683,4.941
	c1.125,1.204,2.539,1.809,4.235,1.809c1.73,0,3.152-0.609,4.265-1.824c1.118-1.215,1.68-2.942,1.68-5.176
	c0-1.41-0.246-2.641-0.723-3.699c-0.476-1.051-1.175-1.867-2.089-2.449c-0.922-0.579-1.954-0.871-3.098-0.871
	c-1.629,0-3.023,0.558-4.195,1.679C557.219,310.855,556.633,312.723,556.633,315.332z M554.262,315.297
	c0-2.883,0.773-5.137,2.32-6.766c1.547-1.629,3.543-2.445,5.992-2.445c1.602,0,3.047,0.387,4.332,1.148
	c1.285,0.77,2.266,1.836,2.942,3.204c0.675,1.367,1.011,2.921,1.011,4.656c0,1.761-0.351,3.336-1.062,4.722
	c-0.711,1.391-1.719,2.442-3.02,3.157c-1.304,0.715-2.707,1.07-4.214,1.07c-1.637,0-3.094-0.391-4.379-1.184
	c-1.289-0.789-2.262-1.867-2.926-3.23S554.262,316.82,554.262,315.297z M539.75,321.699h3.703c1.145,0,2.047-0.105,2.695-0.316
	c0.653-0.215,1.168-0.516,1.559-0.903c0.543-0.542,0.969-1.277,1.27-2.195c0.304-0.922,0.457-2.031,0.457-3.344
	c0-1.816-0.297-3.211-0.891-4.183c-0.598-0.977-1.324-1.629-2.176-1.961c-0.613-0.234-1.605-0.356-2.969-0.356h-3.648V321.699z
	 M537.453,323.75v-17.355h5.977c1.351,0,2.379,0.085,3.093,0.25c0.993,0.226,1.84,0.644,2.543,1.242
	c0.914,0.773,1.602,1.761,2.055,2.965c0.457,1.203,0.68,2.578,0.68,4.125c0,1.316-0.153,2.484-0.461,3.503
	c-0.309,1.02-0.699,1.864-1.188,2.528c-0.48,0.668-1.004,1.195-1.578,1.574c-0.57,0.383-1.261,0.676-2.07,0.871
	c-0.813,0.199-1.738,0.297-2.785,0.297H537.453z M524.383,316.621h5.887l-1.813-4.805c-0.551-1.457-0.961-2.656-1.23-3.597
	c-0.223,1.113-0.532,2.215-0.938,3.316L524.383,316.621z M519.379,323.75l6.664-17.355h2.473l7.105,17.355h-2.617l-2.027-5.258
	h-7.258l-1.903,5.258H519.379z M505.164,323.75v-17.355h12.543v2.046h-10.25v5.317h9.602v2.035h-9.602v5.906h10.656v2.051H505.164z
	 M489.902,321.699h3.703c1.145,0,2.047-0.105,2.696-0.316c0.652-0.215,1.168-0.516,1.554-0.903c0.547-0.542,0.973-1.277,1.274-2.195
	c0.305-0.922,0.457-2.031,0.457-3.344c0-1.816-0.297-3.211-0.895-4.183c-0.597-0.977-1.32-1.629-2.171-1.961
	c-0.614-0.234-1.61-0.356-2.969-0.356h-3.649V321.699z M487.605,323.75v-17.355h5.977c1.348,0,2.379,0.085,3.09,0.25
	c0.996,0.226,1.844,0.644,2.547,1.242c0.914,0.773,1.601,1.761,2.051,2.965c0.457,1.203,0.683,2.578,0.683,4.125
	c0,1.316-0.152,2.484-0.465,3.503c-0.304,1.02-0.699,1.864-1.183,2.528c-0.481,0.668-1.004,1.195-1.578,1.574
	c-0.571,0.383-1.262,0.676-2.071,0.871c-0.812,0.199-1.742,0.297-2.789,0.297H487.605z M474.535,316.621h5.887l-1.813-4.805
	c-0.55-1.457-0.964-2.656-1.23-3.597c-0.223,1.113-0.531,2.215-0.938,3.316L474.535,316.621z M469.527,323.75l6.668-17.355h2.473
	l7.105,17.355h-2.621l-2.023-5.258h-7.258l-1.902,5.258H469.527z M466.309,317.664l2.3,0.582c-0.484,1.883-1.351,3.32-2.601,4.317
	c-1.25,0.988-2.778,1.48-4.59,1.48c-1.871,0-3.391-0.379-4.563-1.137c-1.171-0.765-2.062-1.867-2.671-3.312
	c-0.614-1.446-0.918-2.996-0.918-4.653c0-1.808,0.343-3.382,1.035-4.726c0.691-1.348,1.672-2.371,2.949-3.07
	c1.273-0.696,2.676-1.043,4.207-1.043c1.734,0,3.195,0.437,4.379,1.324c1.184,0.883,2.008,2.125,2.473,3.73l-2.258,0.532
	c-0.406-1.266-0.988-2.18-1.754-2.758s-1.727-0.867-2.891-0.867c-1.332,0-2.445,0.32-3.34,0.957c-0.898,0.644-1.527,1.5-1.886,2.578
	c-0.364,1.074-0.547,2.187-0.547,3.332c0,1.476,0.215,2.761,0.64,3.867c0.434,1.098,1.102,1.922,2.012,2.469
	c0.906,0.543,1.891,0.816,2.949,0.816c1.286,0,2.371-0.375,3.266-1.113C465.391,320.227,465.992,319.121,466.309,317.664z
	 M431.07,323.75v-17.355h12.547v2.046h-10.25v5.317h9.598v2.035h-9.598v5.906h10.653v2.051H431.07z M407.336,318.172l2.168-0.188
	c0.098,0.868,0.336,1.579,0.715,2.137c0.375,0.559,0.957,1.004,1.742,1.348c0.789,0.344,1.68,0.515,2.664,0.515
	c0.879,0,1.648-0.129,2.32-0.39c0.672-0.262,1.172-0.617,1.5-1.071c0.325-0.457,0.493-0.949,0.493-1.484
	c0-0.547-0.161-1.019-0.477-1.426c-0.316-0.41-0.836-0.75-1.563-1.023c-0.468-0.184-1.492-0.465-3.089-0.848
	c-1.59-0.387-2.711-0.746-3.348-1.086c-0.828-0.429-1.449-0.972-1.856-1.613c-0.406-0.645-0.605-1.363-0.605-2.164
	c0-0.871,0.246-1.691,0.742-2.453s1.223-1.34,2.18-1.735c0.957-0.394,2.016-0.589,3.183-0.589c1.29,0,2.418,0.203,3.407,0.621
	c0.98,0.41,1.734,1.023,2.265,1.824c0.524,0.805,0.813,1.719,0.852,2.738l-2.203,0.164c-0.121-1.094-0.52-1.926-1.203-2.484
	c-0.684-0.563-1.688-0.84-3.02-0.84c-1.39,0-2.402,0.254-3.039,0.762c-0.637,0.511-0.953,1.125-0.953,1.84
	c0,0.625,0.223,1.14,0.672,1.539c0.445,0.402,1.597,0.816,3.465,1.238c1.867,0.422,3.148,0.789,3.84,1.105
	c1.011,0.469,1.757,1.059,2.238,1.77c0.484,0.715,0.722,1.539,0.722,2.469c0,0.925-0.265,1.793-0.793,2.609
	c-0.531,0.816-1.289,1.453-2.281,1.906c-0.988,0.453-2.101,0.68-3.34,0.68c-1.57,0-2.89-0.227-3.949-0.688
	c-1.062-0.453-1.894-1.14-2.5-2.062C407.684,320.375,407.363,319.332,407.336,318.172z M395.043,316.621h5.891l-1.817-4.805
	c-0.551-1.457-0.961-2.656-1.226-3.597c-0.223,1.113-0.536,2.215-0.938,3.316L395.043,316.621z M390.039,323.75l6.668-17.355h2.473
	l7.101,17.355h-2.617l-2.023-5.258h-7.258l-1.903,5.258H390.039z M376.77,314.055h4.937c1.047,0,1.871-0.11,2.461-0.328
	c0.594-0.215,1.043-0.563,1.348-1.039c0.308-0.477,0.461-0.997,0.461-1.559c0-0.82-0.293-1.492-0.891-2.024
	c-0.594-0.527-1.535-0.792-2.824-0.792h-5.492V314.055z M374.473,323.75v-17.355h7.695c1.547,0,2.723,0.156,3.527,0.468
	c0.805,0.313,1.446,0.86,1.93,1.649c0.48,0.793,0.719,1.664,0.719,2.617c0,1.234-0.395,2.269-1.196,3.113
	c-0.796,0.844-2.027,1.383-3.691,1.613c0.609,0.29,1.07,0.575,1.387,0.864c0.668,0.613,1.304,1.386,1.906,2.308l3.02,4.723h-2.891
	l-2.297-3.613c-0.668-1.039-1.223-1.84-1.66-2.387c-0.43-0.555-0.82-0.941-1.164-1.16c-0.344-0.223-0.688-0.375-1.047-0.465
	c-0.262-0.055-0.684-0.082-1.277-0.082h-2.664v7.707H374.473z M368.316,306.395h2.301v10.027c0,1.742-0.199,3.129-0.594,4.156
	c-0.398,1.027-1.109,1.86-2.14,2.5c-1.028,0.645-2.379,0.965-4.051,0.965c-1.625,0-2.957-0.277-3.988-0.84
	c-1.035-0.558-1.774-1.371-2.215-2.433c-0.445-1.063-0.664-2.508-0.664-4.348v-10.027h2.297v10.015c0,1.508,0.14,2.621,0.418,3.332
	c0.281,0.715,0.765,1.262,1.445,1.653c0.684,0.386,1.52,0.582,2.504,0.582c1.687,0,2.894-0.387,3.613-1.153
	c0.715-0.765,1.074-2.234,1.074-4.414V306.395z M341.719,321.699h3.703c1.144,0,2.047-0.105,2.695-0.316
	c0.653-0.215,1.168-0.516,1.555-0.903c0.547-0.542,0.973-1.277,1.273-2.195c0.305-0.922,0.457-2.031,0.457-3.344
	c0-1.816-0.3-3.211-0.894-4.183c-0.598-0.977-1.32-1.629-2.172-1.961c-0.613-0.234-1.609-0.356-2.969-0.356h-3.648V321.699z
	 M339.422,323.75v-17.355h5.976c1.348,0,2.379,0.085,3.09,0.25c0.996,0.226,1.844,0.644,2.547,1.242
	c0.914,0.773,1.602,1.761,2.051,2.965c0.457,1.203,0.684,2.578,0.684,4.125c0,1.316-0.153,2.484-0.465,3.503
	c-0.305,1.02-0.7,1.864-1.184,2.528c-0.48,0.668-1.004,1.195-1.578,1.574c-0.57,0.383-1.262,0.676-2.07,0.871
	c-0.813,0.199-1.743,0.297-2.789,0.297H339.422z M326.352,316.621h5.886l-1.816-4.805c-0.547-1.457-0.961-2.656-1.227-3.597
	c-0.222,1.113-0.531,2.215-0.937,3.316L326.352,316.621z M321.344,323.75l6.668-17.355h2.472l7.102,17.355h-2.617l-2.024-5.258
	h-7.257l-1.903,5.258H321.344z M305.813,323.75v-17.355h2.3v7.128h9.016v-7.128h2.301v17.355h-2.301v-8.18h-9.016v8.18H305.813z
	 M300.617,317.664l2.297,0.582c-0.48,1.883-1.348,3.32-2.598,4.317c-1.25,0.988-2.777,1.48-4.589,1.48
	c-1.872,0-3.391-0.379-4.563-1.137c-1.172-0.765-2.062-1.867-2.672-3.312c-0.613-1.446-0.918-2.996-0.918-4.653
	c0-1.808,0.344-3.382,1.035-4.726c0.688-1.348,1.672-2.371,2.95-3.07c1.273-0.696,2.671-1.043,4.203-1.043
	c1.738,0,3.199,0.437,4.383,1.324c1.183,0.883,2.007,2.125,2.472,3.73l-2.258,0.532c-0.406-1.266-0.988-2.18-1.754-2.758
	c-0.765-0.578-1.726-0.867-2.89-0.867c-1.332,0-2.445,0.32-3.34,0.957c-0.898,0.644-1.527,1.5-1.887,2.578
	c-0.363,1.074-0.547,2.187-0.547,3.332c0,1.476,0.215,2.761,0.641,3.867c0.434,1.098,1.102,1.922,2.008,2.469
	c0.91,0.543,1.894,0.816,2.953,0.816c1.285,0,2.371-0.375,3.262-1.113C299.699,320.227,300.301,319.121,300.617,317.664z
	 M272.113,323.75v-17.355h12.547v2.046h-10.25v5.317h9.598v2.035h-9.598v5.906h10.653v2.051H272.113z M257.375,323.75v-17.355
	h11.707v2.046h-9.41v5.375h8.144v2.051h-8.144v7.883H257.375z"/>
</svg>
