<?xml version="1.0" encoding="utf-8"?>
<!-- Generator: Adobe Illustrator 17.0.0, SVG Export Plug-In . SVG Version: 6.00 Build 0)  -->
<!DOCTYPE svg PUBLIC "-//W3C//DTD SVG 1.1//EN" "http://www.w3.org/Graphics/SVG/1.1/DTD/svg11.dtd">
<svg version="1.1" id="Layer_1" xmlns="http://www.w3.org/2000/svg" xmlns:xlink="http://www.w3.org/1999/xlink" x="0px" y="0px"
	 width="359.84px" height="68.766px" viewBox="0 0 359.84 68.766" enable-background="new 0 0 359.84 68.766" xml:space="preserve">
<rect x="0" fill-rule="evenodd" clip-rule="evenodd" fill="#FFCB00" width="359.84" height="68.766"/>
<path fill-rule="evenodd" clip-rule="evenodd" fill="#000200" d="M343.496,50.934c0.707,0,1.398,0.183,2.078,0.547
	c0.672,0.363,1.199,0.886,1.574,1.562c0.379,0.68,0.566,1.383,0.566,2.117c0,0.731-0.183,1.43-0.558,2.102
	c-0.367,0.672-0.887,1.195-1.559,1.562c-0.672,0.375-1.371,0.559-2.101,0.559c-0.731,0-1.434-0.184-2.106-0.559
	c-0.668-0.367-1.191-0.89-1.562-1.562c-0.375-0.672-0.563-1.371-0.563-2.102c0-0.734,0.192-1.437,0.571-2.117
	c0.378-0.676,0.906-1.199,1.582-1.562C342.093,51.117,342.785,50.934,343.496,50.934z M343.496,51.715
	c-0.582,0-1.149,0.149-1.696,0.445c-0.55,0.297-0.98,0.723-1.289,1.278c-0.308,0.551-0.465,1.125-0.465,1.722
	c0,0.598,0.153,1.168,0.458,1.711c0.304,0.547,0.73,0.973,1.277,1.274c0.547,0.304,1.117,0.461,1.715,0.461
	c0.593,0,1.164-0.157,1.711-0.461c0.547-0.301,0.972-0.727,1.277-1.274c0.301-0.543,0.453-1.113,0.453-1.711
	c0-0.597-0.156-1.171-0.465-1.722c-0.308-0.555-0.738-0.981-1.289-1.278C344.632,51.864,344.07,51.715,343.496,51.715z
	 M341.64,57.492v-4.539h1.563c0.535,0,0.922,0.043,1.16,0.125c0.242,0.086,0.43,0.231,0.574,0.442
	c0.141,0.207,0.211,0.429,0.211,0.664c0,0.332-0.117,0.621-0.359,0.863c-0.235,0.25-0.551,0.387-0.946,0.418
	c0.161,0.066,0.293,0.145,0.387,0.238c0.184,0.18,0.406,0.477,0.672,0.903l0.555,0.886h-0.891l-0.402-0.714
	c-0.321-0.563-0.578-0.918-0.774-1.059c-0.133-0.102-0.328-0.152-0.586-0.152h-0.429v1.925H341.64z M342.375,54.938h0.89
	c0.426,0,0.715-0.067,0.871-0.192c0.153-0.125,0.231-0.293,0.231-0.5c0-0.132-0.035-0.254-0.11-0.359
	c-0.078-0.106-0.179-0.184-0.312-0.238c-0.133-0.051-0.379-0.078-0.738-0.078h-0.832V54.938z M297.453,9.438
	c5.086-0.016,10.176,0,15.265-0.008c3.282,6.641,6.504,13.309,9.786,19.953c3.281-6.613,6.429-13.293,9.656-19.937
	c5.101-0.028,10.207-0.016,15.312-0.004c-6.027,10.281-12.093,20.543-18.133,30.82c-0.125,0.203-0.171,0.437-0.164,0.672
	c0.008,6.133,0,12.265,0.004,18.398c-4.437,0.039-8.879,0.008-13.316,0.016c-0.004-6.141-0.004-12.277,0-18.418
	c0-0.18-0.027-0.352-0.09-0.516C309.699,30.071,303.496,19.801,297.453,9.438z M254.949,9.43
	c12.234,0.004,24.465-0.004,36.699,0.004c0,3.273-0.004,6.547,0,9.82c-7.687,0.004-15.375-0.008-23.059,0.004
	c-0.007,3.313-0.007,6.625,0,9.934c6.989,0.004,13.981,0.007,20.969-0.004c0.02,3.316-0.008,6.629,0.016,9.941
	c-6.992,0.055-13.988,0.004-20.985,0.027c-0.011,3.411-0.003,6.821-0.003,10.231c7.945,0.016,15.89-0.027,23.835,0.019
	c0.004,3.305-0.003,6.614,0.004,9.918c-12.496,0.051-24.992,0.012-37.488,0.02C254.945,42.707,254.921,26.067,254.949,9.43z
	 M211.449,9.426c4.543,0.012,9.09,0,13.637,0.008c0.023,13.211-0.028,26.418,0.023,39.629c7.27-0.008,14.539-0.028,21.809,0.008
	c-0.012,3.421-0.008,6.843-0.004,10.261c-11.825,0.035-23.653,0.012-35.481,0.012C211.437,42.707,211.406,26.067,211.449,9.426z
	 M178.937,9.438c6.711-0.008,13.422-0.008,20.137,0c0.32-0.047,0.191,0.386,0.23,0.57c-0.023,8.219,0.024,16.438-0.019,24.656
	C192.472,26.285,185.699,17.864,178.937,9.438z M153.906,9.434c3.543,0,7.09-0.004,10.633,0c0.25-0.043,0.433,0.129,0.578,0.308
	c11.14,13.723,22.289,27.438,33.433,41.153c0.301,0.414,0.805,0.773,0.75,1.344c-0.004,2.371,0.008,4.738-0.007,7.109
	c-3.629,0-7.258,0.008-10.887-0.004c-7.238-8.934-14.418-17.914-21.688-26.824c-0.035,8.941,0,17.886-0.015,26.828
	c-4.266-0.004-8.535,0.016-12.805-0.008C153.902,42.703,153.89,26.067,153.906,9.434z M54.644,9.43
	C68.613,9.434,82.582,9.434,96.55,9.434c0.024,3.379,0.008,6.762,0.008,10.144c-4.769,0.012-9.535-0.011-14.304,0.012
	c-0.02,13.254,0.003,26.504-0.008,39.758c-4.434,0-8.867,0.004-13.301,0c-0.004-13.254,0.004-26.508-0.004-39.762
	c-4.77-0.015-9.539,0.004-14.309-0.008C54.632,16.196,54.613,12.813,54.644,9.43z M28.093,8.774C34.964,8,42.004,8.688,48.597,10.77
	c-0.394,3.57-0.824,7.136-1.23,10.707c-5.266-2.188-11.043-3.485-16.75-2.664c-1.168,0.183-2.356,0.511-3.317,1.23
	c-1.504,1.098-1.945,3.449-0.871,4.981c1.133,1.519,3.008,2.187,4.715,2.832c5.141,1.785,10.738,2.812,15.149,6.203
	c2.843,2.133,4.621,5.539,4.804,9.078c0.262,3.652-0.484,7.535-2.812,10.449c-3.074,3.887-8.074,5.528-12.809,6.238
	c-7.797,1.059-15.832,0.348-23.351-1.945c0.511-3.769,1.007-7.543,1.523-11.312c4.762,2.519,10.18,3.761,15.559,3.613
	c1.808-0.066,3.644-0.25,5.336-0.918c1.011-0.406,1.988-1.066,2.492-2.063c0.672-1.363,0.433-3.113-0.571-4.257
	c-1.039-1.203-2.535-1.871-3.984-2.442c-4.141-1.551-8.551-2.406-12.5-4.457c-2.398-1.23-4.613-2.976-5.98-5.336
	c-1.625-2.758-1.989-6.09-1.645-9.226c0.301-2.809,1.484-5.547,3.488-7.559C19.062,10.68,23.671,9.336,28.093,8.774z M113.703,39.93
	c4.218-0.004,8.441,0,12.66-0.004c-2.059-6.648-4.117-13.297-6.199-19.941C117.953,26.614,115.847,33.278,113.703,39.93z
	 M112.582,9.426c5.148,0.023,10.3-0.008,15.449,0.016c6.176,16.636,12.387,33.261,18.551,49.902
	c-4.485,0.016-8.965-0.004-13.45,0.012c-0.203-0.039-0.558,0.066-0.617-0.207c-1.035-3.114-2.047-6.235-3.066-9.352
	c-0.07-0.18-0.121-0.461-0.379-0.41c-6.137-0.027-12.274,0.008-18.41-0.02c-1.172,3.317-2.262,6.661-3.414,9.981
	c-4.325-0.004-8.653,0.012-12.981-0.008C100.363,42.699,106.445,26.051,112.582,9.426z"/>
</svg>
