<?xml version="1.0" encoding="utf-8"?>
<!-- Generator: Adobe Illustrator 17.0.0, SVG Export Plug-In . SVG Version: 6.00 Build 0)  -->
<!DOCTYPE svg PUBLIC "-//W3C//DTD SVG 1.1//EN" "http://www.w3.org/Graphics/SVG/1.1/DTD/svg11.dtd">
<svg version="1.1" id="Layer_1" xmlns="http://www.w3.org/2000/svg" xmlns:xlink="http://www.w3.org/1999/xlink" x="0px" y="0px"
	 width="210.79px" height="38.717px" viewBox="0 0 210.79 38.717" enable-background="new 0 0 210.79 38.717" xml:space="preserve">
<g>
	<path fill-rule="evenodd" clip-rule="evenodd" fill="#FFFFFF" d="M204.338,38.717c3.564,0,6.452-2.889,6.452-6.453V6.453
		c0-3.563-2.888-6.453-6.452-6.453H6.452C2.888,0,0,2.889,0,6.453v25.812c0,3.563,2.888,6.453,6.452,6.453H204.338L204.338,38.717z"
		/>
	<path fill-rule="evenodd" clip-rule="evenodd" fill="#00539F" d="M202.698,36.107c2.448,0,4.431-1.984,4.431-4.431V7.306
		c0-2.447-1.984-4.431-4.431-4.431H47.01c-2.447,0-4.431,1.984-4.431,4.431v24.37c0,2.447,1.984,4.431,4.431,4.431H202.698
		L202.698,36.107z"/>
	<polygon fill-rule="evenodd" clip-rule="evenodd" fill="#FFFFFF" points="59.398,26.188 55.531,26.188 55.531,14.587 
		52.335,14.587 52.335,11.311 62.594,11.311 62.594,14.587 59.398,14.587 59.398,26.188 	"/>
	<path fill-rule="evenodd" clip-rule="evenodd" fill="#FFFFFF" d="M76.758,26.188h-4.814l-3.65-5.721h-0.039v5.721h-3.867V11.311
		h5.781c2.94,0,5.169,1.401,5.169,4.577c0,2.052-1.144,3.828-3.255,4.202L76.758,26.188L76.758,26.188z M68.255,17.98h0.374
		c1.263,0,2.683-0.237,2.683-1.855c0-1.618-1.42-1.855-2.683-1.855h-0.374V17.98L68.255,17.98z"/>
	<path fill-rule="evenodd" clip-rule="evenodd" fill="#FFFFFF" d="M82.379,23.603l-1.026,2.585h-4.104l5.721-14.876h4.222
		l5.603,14.876h-4.124l-0.967-2.585H82.379L82.379,23.603z M85.082,15.909h-0.039l-1.598,4.735h3.216L85.082,15.909L85.082,15.909z"
		/>
	<polygon fill-rule="evenodd" clip-rule="evenodd" fill="#FFFFFF" points="96.026,11.311 99.834,11.311 102.853,19.263 
		106.049,11.311 109.896,11.311 112.145,26.188 108.278,26.188 107.193,17.625 107.154,17.625 103.582,26.188 102.044,26.188 
		98.63,17.625 98.591,17.625 97.348,26.188 93.501,26.188 96.026,11.311 	"/>
	<path fill-rule="evenodd" clip-rule="evenodd" fill="#FFFFFF" d="M129.366,18.473c0,4.814-3.348,8.207-7.979,8.207
		c-4.63,0-7.978-3.393-7.978-8.207c0-4.498,3.827-7.655,7.978-7.655C125.54,10.818,129.366,13.975,129.366,18.473L129.366,18.473z
		 M117.312,18.493c0,2.565,1.837,4.439,4.075,4.439c2.239,0,4.075-1.874,4.075-4.439c0-2.052-1.837-3.926-4.075-3.926
		C119.149,14.567,117.312,16.441,117.312,18.493L117.312,18.493z"/>
	<polygon fill-rule="evenodd" clip-rule="evenodd" fill="#FFFFFF" points="131.531,11.311 135.398,11.311 142.481,20.407 
		142.52,20.407 142.52,11.311 146.387,11.311 146.387,26.188 142.52,26.188 135.437,17.072 135.398,17.072 135.398,26.188 
		131.531,26.188 131.531,11.311 	"/>
	<polygon fill-rule="evenodd" clip-rule="evenodd" fill="#FFFFFF" points="155.222,26.188 151.355,26.188 151.355,14.587 
		148.159,14.587 148.159,11.311 158.419,11.311 158.419,14.587 155.222,14.587 155.222,26.188 	"/>
	<polygon fill-rule="evenodd" clip-rule="evenodd" fill="#FFFFFF" points="164.079,26.188 160.212,26.188 160.212,11.311 
		164.079,11.311 164.079,26.188 	"/>
	<polygon fill-rule="evenodd" clip-rule="evenodd" fill="#FFFFFF" points="166.604,11.311 170.471,11.311 177.554,20.407 
		177.593,20.407 177.593,11.311 181.46,11.311 181.46,26.188 177.593,26.188 170.51,17.072 170.471,17.072 170.471,26.188 
		166.604,26.188 166.604,11.311 	"/>
	<path fill-rule="evenodd" clip-rule="evenodd" fill="#FFFFFF" d="M187.376,23.603l-1.026,2.585h-4.103l5.721-14.876h4.222
		l5.603,14.876h-4.124l-0.967-2.585H187.376L187.376,23.603z M190.079,15.909h-0.039l-1.598,4.735h3.216L190.079,15.909
		L190.079,15.909z"/>
	<path fill-rule="evenodd" clip-rule="evenodd" fill="#00539F" d="M7.821,34.415h23.66h0.001c0.926,0,1.764-0.376,2.371-0.982
		c0.606-0.606,0.981-1.444,0.982-2.369v-0.002V7.402V7.401c0-0.925-0.376-1.764-0.982-2.37c-0.606-0.606-1.444-0.981-2.369-0.982
		h-0.002H7.821H7.82c-0.929,0-1.767,0.374-2.371,0.979v0.004C4.844,5.637,4.468,6.475,4.468,7.4v0.002v23.66v0.001
		c0,0.926,0.376,1.764,0.982,2.371c0.607,0.606,1.444,0.981,2.369,0.982H7.821L7.821,34.415z M31.481,36.312H7.821H7.819
		c-1.449,0-2.761-0.588-3.711-1.538c-0.95-0.95-1.538-2.263-1.538-3.712v-0.001V7.402V7.4c0-1.449,0.588-2.761,1.538-3.711
		L4.11,3.692c0.952-0.951,2.264-1.54,3.71-1.54h0.001h23.66h0.002c1.449,0,2.761,0.588,3.711,1.537
		c0.95,0.95,1.538,2.263,1.538,3.712v0.001v23.66v0.002c0,1.449-0.588,2.761-1.538,3.711C34.244,35.724,32.932,36.312,31.481,36.312
		L31.481,36.312L31.481,36.312z M7.913,12.946l0.001-0.001L7.913,12.946c0.321-0.597,0.675-1.156,1.062-1.672
		c0.39-0.522,0.824-1.02,1.297-1.49c2.408-2.39,5.723-3.867,9.379-3.867h0.001c3.677,0,7.006,1.491,9.416,3.901
		c2.409,2.409,3.9,5.738,3.9,9.414v0.002v0.001c-0.001,3.677-1.491,7.006-3.901,9.416c-2.409,2.409-5.738,3.9-9.414,3.9h-0.002
		h-0.001c-3.681-0.001-7.013-1.56-9.423-4.039c-2.405-2.473-3.892-5.862-3.893-9.529v-0.002V18.03h0.949h7.815h0.948v0.949v6.639
		h4.173v-6.386v-0.948h0.948h3.604v-3.938H8.743H7.15L7.913,12.946L7.913,12.946z M10.494,12.407
		c-0.011,0.014-0.021,0.028-0.031,0.042h15.259h0.948v0.948v5.835v0.948h-0.948h-3.604v6.387v0.948h-0.948h-6.07H14.15v-0.948v-6.64
		H8.271c0.228,2.794,1.451,5.349,3.313,7.264c2.065,2.124,4.918,3.46,8.067,3.46h0.001h0.002c3.152,0,6.007-1.279,8.073-3.344
		c2.066-2.066,3.345-4.921,3.345-8.074v-0.001V19.23c0-3.152-1.278-6.007-3.344-8.073c-2.066-2.066-4.921-3.344-8.074-3.345h-0.001
		c-3.14,0-5.983,1.265-8.045,3.312C11.21,11.517,10.838,11.946,10.494,12.407L10.494,12.407z"/>
</g>
</svg>
