<?xml version="1.0" encoding="utf-8"?>
<!-- Generator: Adobe Illustrator 17.0.0, SVG Export Plug-In . SVG Version: 6.00 Build 0)  -->
<!DOCTYPE svg PUBLIC "-//W3C//DTD SVG 1.1//EN" "http://www.w3.org/Graphics/SVG/1.1/DTD/svg11.dtd">
<svg version="1.1" id="Layer_1" xmlns="http://www.w3.org/2000/svg" xmlns:xlink="http://www.w3.org/1999/xlink" x="0px" y="0px"
	 width="417.402px" height="157.082px" viewBox="0 0 417.402 157.082" enable-background="new 0 0 417.402 157.082"
	 xml:space="preserve">
<rect x="0.148" fill-rule="evenodd" clip-rule="evenodd" fill="#091719" width="417.227" height="157.082"/>
<path fill-rule="evenodd" clip-rule="evenodd" fill="#FFFFFF" d="M9.246,64.468l20.906,55.699c2.317,5.403,6.391,9.762,12.699,9.75
	c5.989-0.011,9.672-4.843,11.649-9.976l20.558-53.34c2.715-7.652,1.93-11.492-6.043-14.715c-6.675-1.969-11.246-0.633-13.644,6.125
	l-13.086,36.93c-4.527-12.996-9.141-25.961-13.578-38.988C25.066,45.257,4.687,53.445,9.246,64.468z"/>
<path fill-rule="evenodd" clip-rule="evenodd" fill="#FFFFFF" d="M210.789,115.843c0.004,0.11,0.008,0.223,0.008,0.332v2.801
	c0,5.848-4.785,10.633-10.633,10.633c-0.34,0-0.672-0.016-1-0.047c-0.43-0.031-0.859-0.09-1.293-0.176
	c-0.234-0.047-0.402-0.101-0.547-0.164c-3.539-0.988-6.348-3.769-7.371-7.289c-0.34-1.086-0.512-2.348-0.504-3.984l-0.059-35.727
	c0.028-16.664-23.851-17.375-23.742,0.422l0.004,36.645l-0.027,0.105c-0.293,5.668-5.024,10.215-10.762,10.215
	c-5.926,0-10.777-4.848-10.777-10.777v-0.286c-0.035-0.328-0.016-0.726-0.012-1.496l0.289-55.855
	c0.488-13.059,16.176-14.477,20.32-3.41c11.868-14.778,45.899-5.981,45.965,14.664L210.789,115.843z"/>
<path fill-rule="evenodd" clip-rule="evenodd" fill="#FFFFFF" d="M383.863,83.332c2.137-6.254,9.234-9.504,14.973-11.149
	c3.172-0.906,7.976-3.535,9.304-6.641c1.567-3.664,0.54-8.265-2.054-11.261c-2.758-3.192-5.239-4.055-9.391-3.93
	c-6.351,0.184-10.277,6.039-12.668,7.598c-0.805,0.523-0.98,0.156-1.293-0.61c-4.316-10.683-21.074-7.875-21.074,4.032v58
	c0,5.875,4.805,10.679,10.68,10.679h0.507c5.875,0,10.68-4.804,10.68-10.679c0-11.395,0-22.789,0-34.184
	C383.527,84.41,383.605,84.085,383.863,83.332z"/>
<rect x="0" y="139.781" fill-rule="evenodd" clip-rule="evenodd" fill="#FAC900" width="417.402" height="17.301"/>
<path fill-rule="evenodd" clip-rule="evenodd" fill="#FFFFFF" d="M402.406,114c3.289,0,5.949,2.664,5.949,5.949
	s-2.66,5.949-5.949,5.949c-3.285,0-5.949-2.664-5.949-5.949S399.121,114,402.406,114z M402.406,112.253
	c4.25,0,7.695,3.446,7.695,7.696s-3.445,7.695-7.695,7.695s-7.695-3.445-7.695-7.695S398.156,112.253,402.406,112.253z"/>
<path fill-rule="evenodd" clip-rule="evenodd" fill="#FFFFFF" d="M400.16,119.25h1.355c0.879,0,1.43-0.036,1.649-0.11
	s0.391-0.203,0.512-0.387c0.125-0.179,0.187-0.406,0.187-0.679c0-0.305-0.082-0.551-0.246-0.739
	c-0.16-0.187-0.391-0.308-0.691-0.359c-0.145-0.016-0.594-0.027-1.336-0.027h-1.43V119.25z M398.328,124.488v-9.074h3.859
	c0.969,0,1.672,0.082,2.114,0.242c0.437,0.164,0.789,0.453,1.054,0.871c0.266,0.418,0.395,0.89,0.395,1.43
	c0,0.679-0.199,1.246-0.598,1.687c-0.402,0.441-1,0.723-1.797,0.836c0.395,0.234,0.723,0.488,0.981,0.766
	c0.258,0.277,0.605,0.765,1.043,1.472l1.109,1.77h-2.191l-1.325-1.977c-0.472-0.703-0.792-1.148-0.964-1.332
	c-0.176-0.183-0.36-0.308-0.555-0.379c-0.191-0.066-0.5-0.101-0.922-0.101h-0.371v3.789H398.328z"/>
<path fill-rule="evenodd" clip-rule="evenodd" fill="#FFFFFF" d="M107.121,71.523c-7.899,0-14.305,8.305-14.305,18.547
	c0,10.242,6.406,18.543,14.305,18.543c7.894,0,14.301-8.301,14.301-18.543C121.422,79.828,115.015,71.523,107.121,71.523z
	 M107.109,50.296c-19.797,0-35.851,17.836-35.851,39.832c0,22,16.054,39.832,35.851,39.832c19.793,0,35.848-17.832,35.848-39.832
	C142.957,68.132,126.902,50.296,107.109,50.296z"/>
<path fill-rule="evenodd" clip-rule="evenodd" fill="#FFFFFF" d="M324.113,68.464c-7.984,0-14.461,6.059-14.461,13.532
	c0,0.195,0.004,0.39,0.012,0.582h28.898c0.012-0.192,0.016-0.387,0.016-0.582C338.578,74.523,332.101,68.464,324.113,68.464z
	 M323.465,50.296c-20.02,0-36.254,17.836-36.254,39.832c0,22,16.234,39.832,36.254,39.832c10.496,0.055,17.664-1.535,22.957-3.863
	c6.8-2.992,15.636-9.476,11.109-17.961c-1.949-3.66-6.437-5.789-12.941-3.16c-0.914,0.367-1.618,0.816-2.485,1.266
	c-7.726,4.019-27,9.828-31.027-8.532c11.879-0.238,22.617-0.191,39.258-0.078c7.23,0.313,9.383-4.457,9.383-7.504
	C359.719,68.132,343.484,50.296,323.465,50.296z"/>
<path fill-rule="evenodd" clip-rule="evenodd" fill="#FFFFFF" d="M261.535,99.402c-2.582,5.433-7.176,9.051-12.41,9.051
	c-8.074,0-14.621-8.602-14.621-19.215c0-10.613,6.547-19.215,14.621-19.215c7.519,0,12.351,6.766,13.73,13.519
	C263.953,88.921,263.531,95.195,261.535,99.402z M245.379,50.117c-18.012,0-32.617,17.84-32.617,39.847
	c0,22.004,14.605,39.844,32.617,39.844c6.828,0,14.117-1.805,18.16-8.109c1.465,4.402,5.215,8.797,10.742,8.761
	c6.082,0,11.059-4.976,11.059-11.062V27.824c0-6.082-4.977-11.059-11.059-11.059c-6.086,0-11.059,4.977-11.059,11.059v28.781
	C258.094,52.503,251.965,50.117,245.379,50.117z"/>
</svg>
