<?xml version="1.0" encoding="utf-8"?>
<!-- Generator: Adobe Illustrator 17.0.0, SVG Export Plug-In . SVG Version: 6.00 Build 0)  -->
<!DOCTYPE svg PUBLIC "-//W3C//DTD SVG 1.1//EN" "http://www.w3.org/Graphics/SVG/1.1/DTD/svg11.dtd">
<svg version="1.1" id="Layer_1" xmlns="http://www.w3.org/2000/svg" xmlns:xlink="http://www.w3.org/1999/xlink" x="0px" y="0px"
	 width="12px" height="5px" viewBox="0 0 12 5" enable-background="new 0 0 12 5" xml:space="preserve">
<path fill-rule="evenodd" clip-rule="evenodd" fill="#FFFFFF" d="M10.92,3.131c-0.02,0.03-0.112,0.073-0.1,0.004l-0.408,0.018
	c-0.027,0.039-0.062,0.063-0.085,0.058c-0.017-0.005-0.023-0.025-0.018-0.053L9.904,3.176C9.876,3.216,9.84,3.242,9.817,3.235
	C9.799,3.231,9.793,3.21,9.798,3.181L9.396,3.199C9.367,3.24,9.33,3.266,9.306,3.26C9.288,3.255,9.282,3.233,9.287,3.204
	L8.888,3.222C8.858,3.264,8.82,3.29,8.796,3.284C8.777,3.279,8.77,3.256,8.776,3.226L8.38,3.244c-0.03,0.043-0.069,0.07-0.095,0.064
	C8.266,3.303,8.259,3.28,8.264,3.249L7.871,3.267C7.841,3.311,7.8,3.339,7.774,3.332c-0.02-0.005-0.027-0.029-0.021-0.06
	l-0.39,0.017c-0.032,0.045-0.073,0.074-0.1,0.067c-0.02-0.005-0.027-0.029-0.022-0.061L6.855,3.311
	C6.823,3.358,6.781,3.387,6.753,3.38c-0.02-0.005-0.028-0.03-0.022-0.063L6.347,3.334c-0.034,0.047-0.077,0.077-0.105,0.07
	C6.222,3.398,6.214,3.373,6.22,3.34l-0.38,0.017C5.805,3.405,5.761,3.436,5.732,3.428C5.711,3.422,5.703,3.397,5.708,3.362
	L5.574,3.368V3.105l5.191-0.002L11,3.103C11.003,3.103,10.974,3.129,10.92,3.131z M3.56,3.106l1.27-0.001v0.29l-0.003,0
	C4.791,3.45,4.742,3.484,4.711,3.476C4.687,3.47,4.679,3.44,4.687,3.4C4.566,3.404,4.445,3.408,4.324,3.411
	C4.286,3.47,4.234,3.509,4.2,3.5C4.174,3.493,4.167,3.459,4.178,3.415C4.059,3.418,3.941,3.421,3.822,3.423
	C3.783,3.489,3.726,3.534,3.69,3.524C3.661,3.517,3.655,3.477,3.67,3.426L3.62,3.428C3.575,3.428,3.305,3.461,3.151,3.563
	C2.788,3.806,1.847,4.798,1.993,4.437c0.07-0.174,0.71-0.987,0.888-1.163C3.087,3.07,3.284,3.101,3.56,3.106z M1.235,1.203
	C0.942,1.736,0.866,3.651,1.344,4.46c0.148,0.251,0.275,0.339,0.371,0.054c0.057-0.17,0.133-0.451,0.136-0.915
	c0.003-0.474-0.116,0.088-0.262,0.265C1.486,3.181,1.404,1.692,1.701,1.195c0.083-0.14,0.18-0.19,0.269,0.147
	C2.051,1.297,2.14,1.265,2.231,1.243C2.176,0.97,2.095,0.726,1.985,0.54C1.837,0.289,1.71,0.201,1.614,0.486
	C1.291,1.447,1.378,3.224,1.477,3.903C1.424,3.869,1.371,3.749,1.321,3.485C1.192,2.805,1.22,2.082,1.326,1.394
	C1.359,1.18,1.378,0.944,1.235,1.203z M9.972,3.76H9.646v0.107h0.31c0.049,0,0.082,0.008,0.099,0.025
	c0.017,0.017,0.026,0.048,0.026,0.093v0.068c0,0.045-0.009,0.076-0.026,0.093c-0.017,0.017-0.05,0.025-0.099,0.025H9.649
	c-0.049,0-0.082-0.008-0.099-0.025C9.533,4.129,9.525,4.098,9.525,4.053V4.039l0.102-0.021v0.059h0.352V3.963h-0.31
	c-0.048,0-0.081-0.008-0.098-0.025C9.553,3.922,9.545,3.891,9.545,3.846V3.791c0-0.045,0.008-0.076,0.025-0.093
	c0.017-0.017,0.05-0.025,0.098-0.025h0.282c0.047,0,0.079,0.008,0.097,0.024c0.018,0.016,0.027,0.045,0.027,0.085v0.01L9.972,3.817
	V3.76z M9.171,4.171V3.673h0.116v0.498H9.171z M8.332,4.171l0.282-0.498h0.111l0.285,0.498h-0.13l-0.06-0.109H8.505L8.447,4.171
	H8.332z M8.555,3.972h0.218L8.665,3.77L8.555,3.972z M8.122,3.762v0.409H8.006V3.762H7.778V3.673h0.574v0.089H8.122z M7.162,4.171
	V3.673h0.51v0.085H7.278v0.111h0.23v0.085h-0.23v0.123h0.398v0.094H7.162z M6.269,4.171V3.673h0.094l0.234,0.301l0.229-0.301h0.093
	v0.498H6.811V3.863c0-0.006,0-0.014,0.001-0.023C6.813,3.831,6.814,3.821,6.816,3.81C6.809,3.823,6.804,3.834,6.799,3.842
	C6.794,3.85,6.79,3.857,6.787,3.862L6.6,4.111H6.576l-0.187-0.25c-0.007-0.01-0.013-0.018-0.018-0.027
	C6.367,3.826,6.363,3.818,6.359,3.811c0.001,0.01,0.002,0.02,0.002,0.028c0,0.008,0.001,0.017,0.001,0.025v0.307H6.269z M5.547,3.76
	H5.222v0.107h0.31c0.049,0,0.082,0.008,0.099,0.025c0.017,0.017,0.026,0.048,0.026,0.093v0.068c0,0.045-0.008,0.076-0.026,0.093
	C5.613,4.162,5.58,4.171,5.532,4.171H5.225c-0.049,0-0.082-0.008-0.099-0.025C5.109,4.129,5.1,4.098,5.1,4.053V4.039l0.102-0.021
	v0.059h0.352V3.963h-0.31c-0.048,0-0.081-0.008-0.098-0.025C5.129,3.922,5.12,3.891,5.12,3.846V3.791
	c0-0.045,0.008-0.076,0.025-0.093c0.017-0.017,0.05-0.025,0.098-0.025h0.282c0.047,0,0.079,0.008,0.097,0.024
	C5.641,3.713,5.65,3.741,5.65,3.782v0.01L5.547,3.817V3.76z M4.375,4.077h0.382V3.762H4.375V4.077z M4.259,3.791
	c0-0.045,0.009-0.076,0.025-0.093c0.017-0.017,0.05-0.025,0.098-0.025h0.366c0.048,0,0.081,0.008,0.098,0.025
	c0.017,0.017,0.025,0.048,0.025,0.093v0.262c0,0.046-0.008,0.077-0.025,0.093C4.83,4.162,4.797,4.171,4.749,4.171H4.383
	c-0.048,0-0.081-0.008-0.098-0.025C4.268,4.129,4.259,4.098,4.259,4.053V3.791z M3.453,4.171V3.673h0.32
	c0.091,0,0.162,0.021,0.211,0.064C4.033,3.78,4.057,3.84,4.057,3.919c0,0.047-0.01,0.088-0.029,0.125
	C4.009,4.081,3.983,4.111,3.948,4.132C3.926,4.146,3.899,4.155,3.867,4.161C3.835,4.168,3.794,4.171,3.743,4.171H3.453z
	 M3.569,4.077h0.15c0.08,0,0.136-0.012,0.169-0.037c0.033-0.025,0.05-0.066,0.05-0.123c0-0.051-0.014-0.089-0.041-0.116
	C3.869,3.775,3.828,3.762,3.774,3.762H3.569V4.077z M9.931,2.349c0,0.035,0.012,0.064,0.036,0.088
	c0.024,0.025,0.053,0.037,0.086,0.037c0.034,0,0.064-0.012,0.088-0.036c0.024-0.024,0.036-0.054,0.036-0.089
	c0-0.036-0.012-0.065-0.035-0.089c-0.024-0.023-0.053-0.035-0.088-0.035c-0.034,0-0.062,0.012-0.086,0.036
	C9.943,2.284,9.931,2.314,9.931,2.349z M9.437,2.351c0-0.08,0.016-0.154,0.046-0.224C9.514,2.057,9.56,1.995,9.62,1.939
	c0.058-0.055,0.124-0.097,0.199-0.126c0.075-0.029,0.153-0.044,0.234-0.044c0.083,0,0.163,0.015,0.237,0.044
	c0.075,0.029,0.14,0.071,0.197,0.127c0.059,0.057,0.105,0.12,0.136,0.191C10.654,2.2,10.67,2.274,10.67,2.351
	c0,0.079-0.016,0.154-0.046,0.225c-0.031,0.071-0.076,0.134-0.134,0.188c-0.059,0.054-0.126,0.096-0.2,0.125
	c-0.075,0.029-0.154,0.044-0.237,0.044c-0.082,0-0.16-0.014-0.234-0.043C9.745,2.861,9.678,2.819,9.62,2.764
	c-0.06-0.057-0.105-0.12-0.136-0.19C9.453,2.505,9.437,2.43,9.437,2.351z M8.776,2.914V1.791h0.483v1.123H8.776z M7.743,2.914V1.791
	h0.494v0.163C8.274,1.898,8.321,1.856,8.379,1.83c0.058-0.026,0.132-0.039,0.222-0.039h0.034v0.396c-0.134,0-0.23,0.028-0.29,0.083
	c-0.06,0.056-0.089,0.146-0.089,0.27v0.373H7.743z M7.304,1.269L6.923,1.667h-0.18l0.225-0.398H7.304z M6.825,2.349
	c0,0.035,0.012,0.064,0.036,0.088c0.024,0.025,0.053,0.037,0.086,0.037c0.034,0,0.064-0.012,0.088-0.036
	C7.058,2.414,7.07,2.384,7.07,2.349c0-0.036-0.012-0.065-0.035-0.089C7.011,2.237,6.982,2.225,6.947,2.225
	c-0.034,0-0.062,0.012-0.086,0.036C6.837,2.284,6.825,2.314,6.825,2.349z M6.331,2.351c0-0.08,0.016-0.154,0.046-0.224
	c0.031-0.07,0.076-0.133,0.136-0.189c0.058-0.055,0.124-0.097,0.199-0.126c0.075-0.029,0.153-0.044,0.234-0.044
	c0.083,0,0.163,0.015,0.237,0.044c0.075,0.029,0.14,0.071,0.197,0.127c0.059,0.057,0.105,0.12,0.136,0.191
	C7.548,2.2,7.564,2.274,7.564,2.351c0,0.079-0.016,0.154-0.046,0.225C7.487,2.647,7.442,2.71,7.384,2.764
	c-0.059,0.054-0.126,0.096-0.2,0.125C7.108,2.918,7.029,2.933,6.947,2.933c-0.082,0-0.16-0.014-0.234-0.043
	c-0.074-0.029-0.14-0.071-0.199-0.126c-0.06-0.057-0.105-0.12-0.136-0.19C6.346,2.505,6.331,2.43,6.331,2.351z M4.96,3.383V2.499
	c0-0.093,0.003-0.163,0.008-0.208c0.005-0.045,0.014-0.087,0.027-0.125c0.04-0.121,0.112-0.217,0.215-0.288
	c0.104-0.07,0.225-0.105,0.363-0.105c0.081,0,0.159,0.015,0.234,0.044C5.883,1.845,5.95,1.888,6.011,1.943
	C6.068,1.996,6.112,2.059,6.143,2.13C6.174,2.201,6.19,2.274,6.19,2.351c0,0.173-0.058,0.313-0.173,0.418
	C5.902,2.874,5.75,2.926,5.56,2.926c-0.016,0-0.029,0-0.038,0c-0.009,0-0.017-0.001-0.024-0.002L5.497,2.456
	C5.507,2.463,5.52,2.469,5.533,2.473c0.014,0.004,0.028,0.007,0.043,0.007c0.038,0,0.07-0.012,0.095-0.037
	c0.025-0.024,0.038-0.055,0.038-0.091c0-0.036-0.013-0.067-0.039-0.092C5.644,2.234,5.613,2.221,5.576,2.221
	c-0.047,0-0.081,0.015-0.102,0.044C5.452,2.294,5.441,2.341,5.441,2.406v0.977H5.328C5.293,3.43,5.25,3.46,5.222,3.452
	c-0.022-0.006-0.03-0.033-0.024-0.069H4.96z M3.006,2.914V2.345c0-0.085,0.008-0.154,0.024-0.209C3.045,2.08,3.07,2.03,3.106,1.985
	c0.053-0.068,0.12-0.121,0.2-0.159c0.08-0.037,0.165-0.056,0.256-0.056c0.061,0,0.118,0.01,0.17,0.029
	c0.052,0.019,0.102,0.05,0.151,0.09c0.049-0.041,0.1-0.071,0.153-0.09c0.053-0.02,0.11-0.029,0.172-0.029
	c0.074,0,0.145,0.013,0.212,0.039c0.067,0.026,0.128,0.064,0.184,0.113C4.659,1.974,4.7,2.032,4.725,2.098
	C4.75,2.163,4.763,2.246,4.763,2.345v0.569H4.286V2.265c0-0.025-0.008-0.045-0.024-0.061c-0.016-0.015-0.035-0.023-0.06-0.023
	c-0.024,0-0.044,0.008-0.06,0.023C4.126,2.22,4.118,2.241,4.118,2.265v0.649h-0.47V2.265c0-0.024-0.008-0.044-0.024-0.06
	c-0.016-0.016-0.036-0.023-0.06-0.023c-0.025,0-0.046,0.008-0.061,0.023C3.488,2.22,3.48,2.24,3.48,2.265v0.649H3.006z M2.802,1.8
	H2.699c-0.125,0-0.219,0.011-0.282,0.035C2.354,1.857,2.304,1.896,2.265,1.952h0.536v0.377H2.263
	C2.301,2.386,2.351,2.427,2.414,2.45c0.063,0.024,0.158,0.036,0.285,0.036h0.103v0.428H2.757c-0.149,0-0.28-0.011-0.391-0.032
	C2.255,2.86,2.161,2.827,2.085,2.783C1.96,2.711,1.863,2.619,1.795,2.507C1.726,2.395,1.691,2.273,1.691,2.141
	c0-0.132,0.034-0.253,0.102-0.365c0.068-0.111,0.166-0.203,0.291-0.276c0.076-0.043,0.169-0.075,0.281-0.097
	c0.112-0.022,0.242-0.033,0.391-0.033h0.044V1.8z M8.799,1.569C8.746,1.458,8.786,1.323,8.894,1.261
	c0.108-0.062,0.245-0.03,0.314,0.072L8.799,1.569z M9.226,1.363C9.28,1.474,9.24,1.609,9.131,1.671
	C9.023,1.734,8.886,1.701,8.817,1.6L9.226,1.363z M2.094,3.798c0.08-0.145,0.144-0.394,0.185-0.694
	C2.208,3.089,2.138,3.069,2.07,3.042C2.055,3.231,2.032,3.42,2.003,3.606C1.97,3.82,1.951,4.056,2.094,3.798z"/>
</svg>
